<?xml version="1.0" standalone="no"?>
<!DOCTYPE svg PUBLIC "-//W3C//DTD SVG 1.1//EN" "http://www.w3.org/Graphics/SVG/1.1/DTD/svg11.dtd" >
<svg xmlns="http://www.w3.org/2000/svg">
<metadata></metadata>
<defs>
<font id="action_jacksonregular" horiz-adv-x="1191" >
<font-face units-per-em="2048" ascent="1638" descent="-410" />
<missing-glyph horiz-adv-x="1697" />
<glyph horiz-adv-x="2048" />
<glyph horiz-adv-x="2048" />
<glyph unicode="&#xd;" horiz-adv-x="1697" />
<glyph unicode=" "  horiz-adv-x="1697" />
<glyph unicode="&#x09;" horiz-adv-x="1697" />
<glyph unicode="&#xa0;" horiz-adv-x="1697" />
<glyph unicode="!" horiz-adv-x="620" d="M74 1264q0 -14 2 71q2 80 2 164q0 49 26 62q14 6 107 12q29 2 106 8q66 4 72 4q8 0 45 -20q51 -27 78 -109q2 -4 2 -76q0 -6 -7 -108.5t-7 -106.5v-280q0 -2 -5.5 -45t-7.5 -64q8 -127 7 -336q-10 -12 -35 -26q-106 -10 -211 -11q-27 0 -31 3q-49 31 -70 73q-2 8 -8 70 q-10 137 -41 442q-25 270 -24 273zM125 1343q0 -123 76 -860h172v973q0 6 -4 36t-7 38q-2 2 -8 6q-72 -8 -223 -16q-6 -63 -6 -177zM174 215q0 70 49 119t119 49q82 0 131 -64q45 -55 45 -133q0 -61 -55 -107t-109 -46q-61 0 -120.5 58.5t-59.5 123.5zM217 223 q0 -37 39 -73.5t76 -36.5q86 -1 86 108q0 117 -70 117q-49 0 -88 -29q-43 -35 -43 -86zM418 471q18 -10 35 -10q0 -12 0 63v140v120q0 41 -2 106.5t-2 67.5v193q0 6 6 110.5t6 110.5q0 51 -4 66q-6 29 -39 82v-1049zM438 145l21 -14q24 37 24 62q2 43 -12 57q-20 20 -20 22 q6 -102 -13 -127z" />
<glyph unicode="&#x22;" horiz-adv-x="1302" d="M33 1452q0 242 24 274q12 20 72 21q244 0 318 -48q10 -6 76.5 -124.5t70.5 -133.5q12 -57 12 -159q0 -152 -92 -273q-101 -131 -248 -131q-35 0 -82 64l-61 92q2 16 25 43q16 20 32 39q37 51 62 110q-41 2 -111 23q-27 20 -62.5 94t-35.5 109zM98 1431q29 -12 74 -16 q55 -8 72 -12q72 -18 72 -119q0 -94 -95 -226q217 84 217 271q0 29 -8 74q-8 55 -10 73q-14 152 -25 174q-18 31 -227 31h-63q4 -8 4 -20q0 -8 -5.5 -24.5t-5.5 -25.5v-180zM230 987q37 -43 40 -43q119 0 199 110q72 102 72 226q0 74 -12 112q-2 5 -43 99v-15q0 -25 9 -73 t9 -72q0 -236 -274 -344zM694 1446q0 242 24 274q12 20 72 21q244 0 318 -48q10 -6 76.5 -124.5t70.5 -133.5q12 -57 12 -159q0 -152 -92 -273q-101 -131 -248 -131q-35 0 -82 64l-61 92q2 16 25 43q16 20 32 39q37 51 62 110q-41 2 -111 23q-27 20 -62.5 94t-35.5 109z M759 1425q29 -12 74 -16q55 -8 72 -12q72 -18 72 -119q0 -94 -95 -226q217 84 217 271q0 29 -8 74q-8 55 -10 73q-14 152 -25 174q-18 31 -227 31h-63q4 -8 4 -20q0 -8 -5.5 -24.5t-5.5 -25.5v-180zM891 981q37 -43 40 -43q119 0 199 110q72 102 72 226q0 74 -12 112 q-2 5 -43 99v-15q0 -25 9 -73t9 -72q0 -236 -274 -344z" />
<glyph unicode="#" d="M94 1034q0 53 78 166q72 102 125 146q31 27 51 30h58q20 0 63 7.5t63 7.5q92 0 222 -29q145 -31 207 -72q18 -12 33.5 -51t15.5 -65q0 -10 -11.5 -20.5t-19.5 -10.5q-10 0 -33 22q-12 -23 -28 -22q-16 0 -34 38t-48 38q43 -29 43 -60q0 -8 -11.5 -19.5t-19.5 -11.5 q-4 0 -53 48q-6 6 -60 32l-20 -4l35 -35q27 -27 26 -32q0 -31 -41 -31q-14 0 -57 47q-27 33 -55 66l-29 -5q66 -37 65 -59q0 -10 -11 -20.5t-19 -10.5q-4 0 -88 56q0 -6 5 -20.5t5 -20.5q0 -43 -29 -43q-12 0 -29.5 37.5t-76.5 37.5q-137 0 -195 -137q182 -45 258 -45 q6 0 19.5 14.5t17.5 16.5q35 20 92 20q104 0 137 -51q41 2 121 15q12 4 37 26.5t60 22.5q94 0 121.5 -19.5t27.5 -105.5q0 -98 -139 -99q-20 0 -43 2q2 -14 17.5 -51t15.5 -43q0 -20 -53.5 -66t-73.5 -46q-27 0 -27 32q0 18 44 48t44 38q0 6 -19.5 41t-21.5 44.5t-14 101.5 h-90q0 -76 -45 -101q-33 -18 -119 -18q-80 0 -101 59q-2 27 -10 74q-2 2 -4 2q-10 0 -27.5 -4t-25.5 -4q-10 0 -26.5 4t-24.5 4t-17.5 -13t-15.5 -13q-4 0 -43 25.5t-62 25.5q-8 0 -18 -14.5t-10 -22.5q0 -27 49 -47q20 29 37 28q31 0 30 -30q0 -31 -36 -31q-6 0 -7 4 q-4 -10 -4 -31q0 -137 33 -256q6 -20 33 -63q18 -29 18 -78v-6q23 -6 191 -41q109 -25 192 -55q27 6 80 14q37 70 74 70q16 0 96 -35v-31q-12 -8 -49 -8t-76 -41q18 -35 19 -37q0 -41 -49 -61q-39 -16 -86 -17q-31 0 -54 37q-27 -39 -12 -78q-39 25 -39 64q0 20 12 39 q-53 18 -206 51q-129 27 -199 61q6 57 34.5 59.5t28.5 37.5q0 31 -10 44t-24 27q-39 41 -46 303q-100 51 -90 131q-16 16 -32.5 33t-16.5 43zM561 872h33q4 23 33 54q41 47 41 49h-27q-4 -10 -49 -45q-33 -27 -31 -58zM635 498q0 29 117 45q78 10 141 10q10 0 20 -2l-39 -39 q43 -23 127 -70q31 45 31 60q0 8 -4 24.5t-4 26.5q0 27 57 68q6 -5 6 -17q0 -4 -16 -21.5t-18 -21.5q2 6 2 -49q0 -41 -41 -72l14 -8v-16q0 -4 -12 -4q-47 0 -111.5 38.5t-70.5 38.5q-27 0 -83.5 -11t-84.5 -11q-8 0 -19.5 10t-11.5 21zM748 238h24q12 -1 51 30 q-4 2 -16 11.5t-21 9.5q-8 0 -38 -15v-36zM913 1243l17 -29h6l-14 31zM920 897q33 -10 41 -10q18 0 59 125q-12 -8 -100 -115z" />
<glyph unicode="$" d="M94 1034q0 53 78 166q72 102 125 146q31 27 51 30h58q20 0 63 7.5t63 7.5q92 0 222 -29q145 -31 207 -72q18 -12 33.5 -51t15.5 -65q0 -10 -11.5 -20.5t-19.5 -10.5q-10 0 -33 22q-12 -23 -28 -22q-16 0 -34 38t-48 38q43 -29 43 -60q0 -8 -11.5 -19.5t-19.5 -11.5 q-4 0 -53 48q-6 6 -60 32l-20 -4l35 -35q27 -27 26 -32q0 -31 -41 -31q-14 0 -57 47q-27 33 -55 66l-29 -5q66 -37 65 -59q0 -10 -11 -20.5t-19 -10.5q-4 0 -88 56q0 -6 5 -20.5t5 -20.5q0 -43 -29 -43q-12 0 -29.5 37.5t-76.5 37.5q-137 0 -195 -137q182 -45 258 -45 q6 0 19.5 14.5t17.5 16.5q35 20 92 20q104 0 137 -51q41 2 121 15q12 4 37 26.5t60 22.5q94 0 121.5 -19.5t27.5 -105.5q0 -98 -139 -99q-20 0 -43 2q2 -14 17.5 -51t15.5 -43q0 -20 -53.5 -66t-73.5 -46q-27 0 -27 32q0 18 44 48t44 38q0 6 -19.5 41t-21.5 44.5t-14 101.5 h-90q0 -76 -45 -101q-33 -18 -119 -18q-80 0 -101 59q-2 27 -10 74q-2 2 -4 2q-10 0 -27.5 -4t-25.5 -4q-10 0 -26.5 4t-24.5 4t-17.5 -13t-15.5 -13q-4 0 -43 25.5t-62 25.5q-8 0 -18 -14.5t-10 -22.5q0 -27 49 -47q20 29 37 28q31 0 30 -30q0 -31 -36 -31q-6 0 -7 4 q-4 -10 -4 -31q0 -137 33 -256q6 -20 33 -63q18 -29 18 -78v-6q23 -6 191 -41q109 -25 192 -55q27 6 80 14q37 70 74 70q16 0 96 -35v-31q-12 -8 -49 -8t-76 -41q18 -35 19 -37q0 -41 -49 -61q-39 -16 -86 -17q-31 0 -54 37q-27 -39 -12 -78q-39 25 -39 64q0 20 12 39 q-53 18 -206 51q-129 27 -199 61q6 57 34.5 59.5t28.5 37.5q0 31 -10 44t-24 27q-39 41 -46 303q-100 51 -90 131q-16 16 -32.5 33t-16.5 43zM561 872h33q4 23 33 54q41 47 41 49h-27q-4 -10 -49 -45q-33 -27 -31 -58zM635 498q0 29 117 45q78 10 141 10q10 0 20 -2l-39 -39 q43 -23 127 -70q31 45 31 60q0 8 -4 24.5t-4 26.5q0 27 57 68q6 -5 6 -17q0 -4 -16 -21.5t-18 -21.5q2 6 2 -49q0 -41 -41 -72l14 -8v-16q0 -4 -12 -4q-47 0 -111.5 38.5t-70.5 38.5q-27 0 -83.5 -11t-84.5 -11q-8 0 -19.5 10t-11.5 21zM748 238h24q12 -1 51 30 q-4 2 -16 11.5t-21 9.5q-8 0 -38 -15v-36zM913 1243l17 -29h6l-14 31zM920 897q33 -10 41 -10q18 0 59 125q-12 -8 -100 -115z" />
<glyph unicode="%" d="M94 1034q0 53 78 166q72 102 125 146q31 27 51 30h58q20 0 63 7.5t63 7.5q92 0 222 -29q145 -31 207 -72q18 -12 33.5 -51t15.5 -65q0 -10 -11.5 -20.5t-19.5 -10.5q-10 0 -33 22q-12 -23 -28 -22q-16 0 -34 38t-48 38q43 -29 43 -60q0 -8 -11.5 -19.5t-19.5 -11.5 q-4 0 -53 48q-6 6 -60 32l-20 -4l35 -35q27 -27 26 -32q0 -31 -41 -31q-14 0 -57 47q-27 33 -55 66l-29 -5q66 -37 65 -59q0 -10 -11 -20.5t-19 -10.5q-4 0 -88 56q0 -6 5 -20.5t5 -20.5q0 -43 -29 -43q-12 0 -29.5 37.5t-76.5 37.5q-137 0 -195 -137q182 -45 258 -45 q6 0 19.5 14.5t17.5 16.5q35 20 92 20q104 0 137 -51q41 2 121 15q12 4 37 26.5t60 22.5q94 0 121.5 -19.5t27.5 -105.5q0 -98 -139 -99q-20 0 -43 2q2 -14 17.5 -51t15.5 -43q0 -20 -53.5 -66t-73.5 -46q-27 0 -27 32q0 18 44 48t44 38q0 6 -19.5 41t-21.5 44.5t-14 101.5 h-90q0 -76 -45 -101q-33 -18 -119 -18q-80 0 -101 59q-2 27 -10 74q-2 2 -4 2q-10 0 -27.5 -4t-25.5 -4q-10 0 -26.5 4t-24.5 4t-17.5 -13t-15.5 -13q-4 0 -43 25.5t-62 25.5q-8 0 -18 -14.5t-10 -22.5q0 -27 49 -47q20 29 37 28q31 0 30 -30q0 -31 -36 -31q-6 0 -7 4 q-4 -10 -4 -31q0 -137 33 -256q6 -20 33 -63q18 -29 18 -78v-6q23 -6 191 -41q109 -25 192 -55q27 6 80 14q37 70 74 70q16 0 96 -35v-31q-12 -8 -49 -8t-76 -41q18 -35 19 -37q0 -41 -49 -61q-39 -16 -86 -17q-31 0 -54 37q-27 -39 -12 -78q-39 25 -39 64q0 20 12 39 q-53 18 -206 51q-129 27 -199 61q6 57 34.5 59.5t28.5 37.5q0 31 -10 44t-24 27q-39 41 -46 303q-100 51 -90 131q-16 16 -32.5 33t-16.5 43zM561 872h33q4 23 33 54q41 47 41 49h-27q-4 -10 -49 -45q-33 -27 -31 -58zM635 498q0 29 117 45q78 10 141 10q10 0 20 -2l-39 -39 q43 -23 127 -70q31 45 31 60q0 8 -4 24.5t-4 26.5q0 27 57 68q6 -5 6 -17q0 -4 -16 -21.5t-18 -21.5q2 6 2 -49q0 -41 -41 -72l14 -8v-16q0 -4 -12 -4q-47 0 -111.5 38.5t-70.5 38.5q-27 0 -83.5 -11t-84.5 -11q-8 0 -19.5 10t-11.5 21zM748 238h24q12 -1 51 30 q-4 2 -16 11.5t-21 9.5q-8 0 -38 -15v-36zM913 1243l17 -29h6l-14 31zM920 897q33 -10 41 -10q18 0 59 125q-12 -8 -100 -115z" />
<glyph unicode="&#x26;" d="M94 1034q0 53 78 166q72 102 125 146q31 27 51 30h58q20 0 63 7.5t63 7.5q92 0 222 -29q145 -31 207 -72q18 -12 33.5 -51t15.5 -65q0 -10 -11.5 -20.5t-19.5 -10.5q-10 0 -33 22q-12 -23 -28 -22q-16 0 -34 38t-48 38q43 -29 43 -60q0 -8 -11.5 -19.5t-19.5 -11.5 q-4 0 -53 48q-6 6 -60 32l-20 -4l35 -35q27 -27 26 -32q0 -31 -41 -31q-14 0 -57 47q-27 33 -55 66l-29 -5q66 -37 65 -59q0 -10 -11 -20.5t-19 -10.5q-4 0 -88 56q0 -6 5 -20.5t5 -20.5q0 -43 -29 -43q-12 0 -29.5 37.5t-76.5 37.5q-137 0 -195 -137q182 -45 258 -45 q6 0 19.5 14.5t17.5 16.5q35 20 92 20q104 0 137 -51q41 2 121 15q12 4 37 26.5t60 22.5q94 0 121.5 -19.5t27.5 -105.5q0 -98 -139 -99q-20 0 -43 2q2 -14 17.5 -51t15.5 -43q0 -20 -53.5 -66t-73.5 -46q-27 0 -27 32q0 18 44 48t44 38q0 6 -19.5 41t-21.5 44.5t-14 101.5 h-90q0 -76 -45 -101q-33 -18 -119 -18q-80 0 -101 59q-2 27 -10 74q-2 2 -4 2q-10 0 -27.5 -4t-25.5 -4q-10 0 -26.5 4t-24.5 4t-17.5 -13t-15.5 -13q-4 0 -43 25.5t-62 25.5q-8 0 -18 -14.5t-10 -22.5q0 -27 49 -47q20 29 37 28q31 0 30 -30q0 -31 -36 -31q-6 0 -7 4 q-4 -10 -4 -31q0 -137 33 -256q6 -20 33 -63q18 -29 18 -78v-6q23 -6 191 -41q109 -25 192 -55q27 6 80 14q37 70 74 70q16 0 96 -35v-31q-12 -8 -49 -8t-76 -41q18 -35 19 -37q0 -41 -49 -61q-39 -16 -86 -17q-31 0 -54 37q-27 -39 -12 -78q-39 25 -39 64q0 20 12 39 q-53 18 -206 51q-129 27 -199 61q6 57 34.5 59.5t28.5 37.5q0 31 -10 44t-24 27q-39 41 -46 303q-100 51 -90 131q-16 16 -32.5 33t-16.5 43zM561 872h33q4 23 33 54q41 47 41 49h-27q-4 -10 -49 -45q-33 -27 -31 -58zM635 498q0 29 117 45q78 10 141 10q10 0 20 -2l-39 -39 q43 -23 127 -70q31 45 31 60q0 8 -4 24.5t-4 26.5q0 27 57 68q6 -5 6 -17q0 -4 -16 -21.5t-18 -21.5q2 6 2 -49q0 -41 -41 -72l14 -8v-16q0 -4 -12 -4q-47 0 -111.5 38.5t-70.5 38.5q-27 0 -83.5 -11t-84.5 -11q-8 0 -19.5 10t-11.5 21zM748 238h24q12 -1 51 30 q-4 2 -16 11.5t-21 9.5q-8 0 -38 -15v-36zM913 1243l17 -29h6l-14 31zM920 897q33 -10 41 -10q18 0 59 125q-12 -8 -100 -115z" />
<glyph unicode="'" horiz-adv-x="671" d="M39 1418q0 242 24 274q12 20 72 21q244 0 318 -48q10 -6 76.5 -124.5t70.5 -133.5q12 -57 12 -159q0 -152 -92 -273q-101 -131 -248 -131q-35 0 -82 64l-61 92q2 16 25 43q16 20 32 39q37 51 62 110q-41 2 -111 23q-27 20 -62.5 94t-35.5 109zM104 1397q29 -12 74 -16 q55 -8 72 -12q72 -18 72 -119q0 -94 -95 -226q217 84 217 271q0 29 -8 74q-8 55 -10 73q-14 152 -25 174q-18 31 -227 31h-63q4 -8 4 -20q0 -8 -5.5 -24.5t-5.5 -25.5v-180zM236 953q37 -43 40 -43q119 0 199 110q72 102 72 226q0 74 -12 112q-2 5 -43 99v-15q0 -25 9 -73 t9 -72q0 -236 -274 -344z" />
<glyph unicode="(" horiz-adv-x="606" d="M49 653v197q0 -10 14 108q25 184 87 334q82 203 204 256q16 12 49 29q27 -18 52 -37q39 -27 39 -39q0 -55 -29 -170q-39 -152 -43 -172q-35 -197 -35 -379q0 -334 96 -579q4 -12 38 -69.5t34 -65.5q0 -12 -42 -76t-67 -64q-8 0 -84 51q-119 78 -180 193q-41 74 -92 248 q-41 139 -41 235zM109 797q0 -240 47 -396q61 -200 213 -333q-84 258 -117 393q-51 215 -51 407q0 281 139 600q-113 -96 -176 -311q-55 -180 -55 -360z" />
<glyph unicode=")" horiz-adv-x="577" d="M39 18q152 379 151 644q0 356 -53 665q-4 27 -41 146q-33 111 -33 120q0 12 23 23q10 -2 59 -39q143 -111 248 -315.5t105 -382.5q0 -57 -17 -224q-18 -174 -32 -215q-84 -260 -261 -397q-74 -57 -106 -57q-33 0 -43 32zM119 92q33 27 86 84q70 109 117 346 q43 207 43 365q0 166 -60 342q-66 199 -174 291q111 -330 111 -830q0 -268 -123 -598z" />
<glyph unicode="*" horiz-adv-x="505" d="M84 1354q0 63 35 63q33 0 108 -39h13q0 16 -6.5 50t-6.5 51q0 37 33 37q63 0 64 -50q0 -8 -2.5 -27.5t-2.5 -29.5l9 -12q55 39 71 39q10 0 36 -38t26 -50q0 -20 -37 -29q-27 -4 -53 -6q78 -76 78 -86q0 -23 -13.5 -46.5t-34.5 -23.5q-18 0 -57 41q-27 29 -51 57 q-16 -31 -33 -61q-25 -47 -41 -47t-38.5 23.5t-22.5 39.5q0 20 20.5 41t26.5 43q-39 6 -76 11q-45 10 -45 49z" />
<glyph unicode="+" horiz-adv-x="1167" d="M49 961v165q0 90 49 101q18 2 54 2q33 0 100 -5t102 -5q4 170 19 358q10 20 37 20q20 0 160.5 -26.5t146.5 -32.5q25 -18 62.5 -74.5t37.5 -81.5q0 -59 -26 -182q80 -16 161 -35q33 -8 49 -37q80 -139 80 -141q0 -53 -24 -170q-31 -137 -58 -137q-39 0 -113.5 19.5 t-113.5 19.5q2 -154 0 -170q-8 -59 -52 -78.5t-171 -19.5q-115 0 -135 12q-76 106 -86 158q-4 16 -4 180q-59 -4 -170 12q-14 6 -59.5 69.5t-45.5 78.5zM106 985q29 4 146 4q137 0 137 -92q0 -37 -5 -106.5t-5 -106.5q0 -33 8 -51h37q33 0 97.5 7t96.5 7v205q0 63 52 63 q43 0 127 -21.5t127 -21.5l4 2v44q0 31 6 93t6 93q-295 57 -295 94q0 51 17.5 150.5t17.5 148.5q-84 12 -252 39q-8 -168 -25 -352q-12 -20 -297 -13l9 -8q-6 -20 -9 -178zM115 932q45 -59 53 -66q25 -16 82 -16l78 2q4 12 4 41v22q-63 16 -170 17h-47zM401 575 q14 -23 43 -67q41 0 124 3t124 3q-51 76 -112 76q-8 0 -179 -15zM711 854q49 -76 82.5 -92.5t128.5 -16.5h26q-6 66 -96 84q-72 12 -141 25z" />
<glyph unicode="," horiz-adv-x="671" d="M39 242q0 242 24 274q12 20 72 21q244 0 318 -48q10 -6 76.5 -124.5t70.5 -133.5q12 -57 12 -159q0 -152 -92 -273q-101 -131 -248 -131q-35 0 -82 64l-61 92q2 16 25 43q16 20 32 39q37 51 62 110q-41 2 -111 23q-27 20 -62.5 94t-35.5 109zM104 221q29 -12 74 -16 q55 -8 72 -12q72 -18 72 -119q0 -94 -95 -226q217 84 217 271q0 29 -8 74q-8 55 -10 73q-14 152 -25 174q-18 31 -227 31h-63q4 -8 4 -20q0 -8 -5.5 -24.5t-5.5 -25.5v-180zM236 -223q37 -43 40 -43q119 0 199 110q72 102 72 226q0 74 -12 112q-2 5 -43 99v-15q0 -25 9 -73 t9 -72q0 -236 -274 -344z" />
<glyph unicode="-" d="M123 928q0 23 22 30q68 27 371 25q90 0 229 -4q133 -2 158 -2q14 0 45 4t45 4q57 0 90 -61q25 -47 25 -107q0 -211 -15.5 -233.5t-109.5 -22.5q-27 0 -81 -3t-81 -3q-35 0 -104.5 4t-104.5 4q-88 0 -270 -10q-10 0 -29.5 -5t-29.5 -5q-45 0 -146 149q-14 168 -14 236z M186 899l13 -168h86q6 0 18 4t19 4h258q35 0 100 11q76 12 104 14q33 2 185 0v151h-29q-16 0 -47 -8t-47 -8q-23 0 -62 8t-57 8q-92 4 -182 5q-209 0 -359 -21zM240 666l53 -58q16 6 53 13q98 8 266 8q35 0 105.5 -4t107.5 -4q33 0 95.5 4t93.5 4q-12 22 -37 63 q-35 6 -107 6q-49 0 -145 -12t-141 -12h-267q-14 0 -38 -4q-31 -4 -39 -4z" />
<glyph unicode="." horiz-adv-x="546" d="M37 233q0 72 48 121t120 49t180 -63q29 -14 80 -59q31 -43 31 -88q0 -102 -62 -156q-8 -6 -67.5 -16.5t-71.5 -10.5q-39 0 -118 44t-101 73q-39 47 -39 106zM111 252q0 -53 34 -96q39 -51 103 -52q43 0 71.5 39t28.5 80q0 47 -39 89t-94 42q-45 0 -74.5 -28.5 t-29.5 -73.5zM379 127q25 6 47 12q16 8 16 39q0 66 -45 90q25 -61 -18 -141z" />
<glyph unicode="/" horiz-adv-x="778" d="M88 266q0 43 174 631q61 213 178 510q10 25 53.5 58.5t67.5 33.5q33 0 93.5 -37.5t60.5 -66.5q0 -2 -25 -52q-25 -55 -26 -61q-55 -147 -111 -295q-61 -174 -90 -301q-25 -104 -51 -334q2 -41 -9 -121q-6 -20 -60 -42.5t-83 -22.5q-33 0 -102.5 36t-69.5 64zM135 270 q31 -14 94 -45q90 399 148 576q14 45 104 286q63 176 92 291l-63 31q-53 -119 -115 -311q-29 -68 -78 -205q-59 -209 -182 -623zM537 1442q72 -43 77 -43q21 0 41 31q-41 39 -73 38q6 0 -45 -26z" />
<glyph unicode="0" horiz-adv-x="1214" d="M12 829q0 260 82 443q104 229 324 289q76 18 80 18q248 0 389 -123q27 -31 78 -90q96 -111 131 -180q39 -80 53 -217q22 -201 22 -359q0 -31 -10 -75q-16 -66 -18 -76q-29 -174 -148 -293q-127 -129 -299 -129q-328 0 -514 237q-170 217 -170 555zM76 885q0 -246 51 -363 q78 -182 149 -260q106 -113 269 -112q268 0 373 204q73 146 73 445q0 55 -10 139q-14 115 -16 139q-14 170 -138 301q-129 139 -295 140q-354 0 -413 -441q-2 -27 -25 -96q-18 -59 -18 -96zM279 891q0 154 55 283q72 168 205 167q307 0 307 -467q0 -100 -27 -274 q-35 -207 -76 -246q-51 -51 -165 -51q-164 0 -242 225q-57 160 -57 363zM342 813q0 -141 49 -235q-4 49 -4 94q0 194 72 356l-33 4q-61 -25 -78 -88q-6 -27 -6 -131zM438 643q0 -281 172 -281q76 0 117 99q33 76 33 166v342q0 31 -37 180q-29 23 -45 22q-111 0 -184 -217 q-55 -168 -56 -311zM1001 1241q70 -281 70 -496q0 -37 -8 -109.5t-8 -111.5l49 -4q14 88 14 92q0 469 -117 629z" />
<glyph unicode="1" horiz-adv-x="1138" d="M84 362q0 29 22 54q8 6 132 20q115 14 143 15q8 6 8 41q0 23 -3 66.5t-3 49.5q0 51 9 154.5t9 157.5q0 35 -6 69q-8 -16 -35 -33q-37 16 -110 56q-31 16 -90.5 91t-59.5 103q0 14 76 135q90 143 94 150q16 35 45 76q16 4 166 17t181 13q29 0 77 -75q43 -70 52 -105 q16 -80 16 -270q0 -51 2 -165t2 -165q0 -33 -4 -110q-4 -66 -2 -105q2 -57 14 -108q100 10 111 10q35 0 51 -12q74 -61 92 -156q6 -39 6 -184q0 -57 -41 -74q-20 -8 -94 -8q-16 0 -47 -7.5t-41 -9.5q-66 -4 -197 -16q-104 -14 -372 -25q-16 0 -152 150q-51 137 -51 200z M147 354q14 -61 43 -182q6 0 19.5 -2t21.5 -2q68 0 172 12q154 18 172 21q94 4 187 10q110 9 186 29q-8 70 -16 204q-88 -14 -213 -14q-47 0 -51 109q-25 580 -23 987q-37 8 -55 8q-35 0 -131.5 -12.5t-116.5 -22.5q-43 -74 -86 -149q-51 -88 -98 -142q37 -49 114 -143 l68 68q49 49 72 49l20 -4q25 -20 25 -287q0 -53 -8 -139q-10 -113 -13 -140q4 -76 -2 -219l-16 -12q-203 -25 -271 -27zM694 1296q0 -162 11 -399q10 -193 18 -387l35 -21l12 5v26q0 -18 -4 49q-4 57 -4 240q0 66 -7 208t-7 206v182q0 6 -50 76q0 -29 -2 -91.5t-2 -93.5z M993 242q0 -33 47 -74q0 29 -4 89t-4 85q0 16 -16.5 31.5t-20.5 21.5z" />
<glyph unicode="2" horiz-adv-x="1286" d="M68 1192q0 2 8 37t14 68.5t31 60.5q80 90 252 145q152 49 291 49q182 0 292.5 -116.5t110.5 -300.5q0 -84 -48 -184.5t-126 -205.5q-37 -47 -109 -102q-94 -76 -114 -96h98q70 -2 98 -2q33 0 100.5 8t102.5 8q27 0 70 -12q55 -17 55 -35q0 -25 -8 -76t-8 -73v-43 q2 -27 2 -41q0 -211 -93 -211q-143 0 -425.5 4t-423.5 4q-18 0 -69.5 138t-51.5 175q0 63 57 133q14 16 107 103q39 45 122 131q72 47 195 160q10 12 26.5 53t16.5 57q0 41 -86 41q-66 0 -172 -41q-121 -45 -168 -53q0 2 -82 115q-66 92 -65 102zM121 1196q0 -8 34.5 -63.5 t47.5 -71.5q20 41 20 57q0 12 -35 78q-33 59 -47 78q-20 -66 -20 -78zM158 1323q31 -57 98 -172l23 -8q260 119 344 119q66 0 111.5 -48.5t45.5 -113.5q0 -127 -270 -328q-55 -41 -131 -117q-61 -63 -123 -125q0 -57 16 -147q25 -121 29 -145h25q43 0 123 -2h122 q66 0 197 -6.5t197 -6.5q78 0 149 2l10 144q2 43 6 125q-43 0 -131 -5.5t-131 -5.5h-67q-45 2 -68 2h-57q-37 2 -58 2q-51 0 -51 31q0 14 117 111q131 109 143 121q84 96 142 243q45 113 45 144q0 162 -95.5 262t-254.5 100q-113 0 -236 -31q-51 -12 -152 -61 q-119 -55 -118 -84zM166 389l76 -225l18 33q-6 18 -16 55q-12 78 -35 231q-43 -96 -43 -94zM612 1110q35 0 61.5 -28.5t20.5 -61.5q33 45 33 74q0 18 -24.5 35.5t-43.5 17.5q-12 0 -47 -37z" />
<glyph unicode="3" horiz-adv-x="1060" d="M33 1524q176 88 391 88q102 0 223 -44t191 -112q45 -43 82 -104q43 -72 43 -123q0 -88 -52 -187q-47 -90 -118 -153q217 -178 217 -447q0 -240 -219 -350q-169 -82 -431 -82q-70 0 -86 2q-39 10 -67 47q-12 16 -43 60q-18 25 -35.5 50.5t-19.5 51.5q35 72 67 146 q59 115 86 114q23 0 68 -14t67 -14q39 0 73 17t34 48q0 63 -107 70q-45 88 -61 145q-6 27 -29 154q-2 10 -14 49q-8 29 -8 49q0 14 39 33q57 25 114 47q78 41 78 78q0 49 -86 49q-61 0 -221 -66q-23 6 -76 82q-51 70 -59 97q-10 37 -41 219zM100 1479q0 4 27 -136h8 q33 0 98.5 15.5t98.5 15.5q102 0 172 -35q94 -43 94 -139q0 -164 -242 -237q10 -74 31 -224l39 2q66 2 119 -46t53 -115q0 -74 -60.5 -133.5t-136.5 -59.5q2 0 -129 25q-31 -59 -90 -185q94 -41 152 -41q193 0 305 50q82 35 160 149.5t78 202.5q0 86 -52 172 q-57 96 -133 110q-35 2 -67 7q-43 8 -43 38q0 4 36 41q190 180 191 340q0 123 -137 195q-113 57 -250 57q-186 0 -322 -53v-16zM692 934l37 -10q51 2 113 127q57 113 57 176q0 35 -27 80q-8 -223 -180 -373zM813 293q8 -51 49 -51q35 0 62 84q23 70 22 114q0 37 -8 84 q-12 -72 -125 -231z" />
<glyph unicode="4" d="M45 836q0 74 37 178q55 158 59 174q18 82 37 162q31 125 53 141q47 35 144 104q35 0 88 -16q43 -12 88 -25l6 -24q-33 -133 -94 -400l131 -24q14 82 59 213q6 12 74 41q61 27 61 26q20 0 127 -17t113 -23q12 -12 12 -33q0 -63 -28 -160q-37 -127 -41 -156q47 -23 94 -43 q70 -34 70 -57q0 -57 -49.5 -170t-73.5 -117q-20 8 -119 8q-10 0 -23 -96q-12 -86 -36 -225q-4 -59 -9 -119q-8 -51 -73 -96q-14 -14 -47 -41h-41q-49 -2 -164 16q-129 20 -149.5 39t-18.5 49q8 76 59 291t58 258q-115 23 -228 47q-176 43 -176 95zM104 895q16 8 41 29 q14 16 86 270q68 240 80 303q-39 -31 -52 -55.5t-19 -65.5q-10 -66 -11 -65q-20 -57 -57 -170q-27 -90 -68 -246zM199 946q66 -20 231 -49q150 -25 227 -55q25 -10 25 -35q0 -14 -27 -105q-31 -104 -34 -116q-18 -131 -84 -391q184 -25 235 -25q10 109 74 514q6 33 13 68.5 t40 35.5q29 0 74 -10q63 -16 71 -16q23 57 35 125q-49 23 -149 74v10q0 61 28.5 172.5t30.5 163.5l-188 24q-80 -319 -113 -319q-2 0 -90 30.5t-139 30.5t-51 31q0 72 36 207q45 162 54 209l-60 12q-35 8 -57 8q-27 -98 -82 -293q-35 -100 -100 -301zM387 170 q29 10 59.5 21.5t47.5 31.5q48 232 120 533q-47 -23 -112 -68q-18 -27 -65.5 -249t-49.5 -269zM639 1092q14 -4 35 -17q28 80 69 240q-23 -6 -55 -31q-10 -16 -29.5 -94t-19.5 -98z" />
<glyph unicode="5" horiz-adv-x="1261" d="M49 311q0 14 35 113q35 92 47 115q14 0 142 -45t200 -45q119 0 119 59q0 106 -197 106q-20 0 -57 -7t-55 -7q-27 0 -78 89t-51 120q0 8 8 33.5t10 31.5q6 47 25 144l172 555q113 -4 333 -25q45 -6 377 -88q45 -8 107 -35q8 -10 18 -100q10 -79 10 -108t-31.5 -135.5 t-46 -120t-46.5 -21.5q-137 61 -431 127q-14 -47 -20 -102q51 -10 152 -35q123 -31 202 -174q70 -127 70 -264q0 -123 -40 -200t-138 -151q-57 -43 -166 -78.5t-178 -35.5q-80 0 -224 30q-160 37 -204 78q-18 16 -41 81t-23 95zM102 262q10 -59 33 -85.5t184 -57.5 q143 -29 205 -29q72 0 176 31q131 39 131 92q-12 37 -24 37q-6 0 -112.5 -42t-174.5 -42q-190 0 -418 96zM106 332q166 -78 183 -84q57 -16 194 -17q205 0 338 93q152 106 152 303q0 31 -17.5 70.5t-17.5 56.5q-53 88 -127 125q-57 27 -176 39q-51 4 -105 8q-82 8 -81 26 q0 16 29.5 163t35.5 157t25 10q88 0 267 -57.5t269 -57.5q19 78 68 232q-111 31 -219 61q-127 33 -226.5 43t-302.5 27q-10 -113 -96 -365q-78 -227 -78 -370q207 -2 301 -33q174 -53 174 -209q0 -70 -73 -117q-66 -41 -142 -41q-70 0 -162 25q-80 25 -157 49 q-33 -39 -56 -137zM244 741q2 -10 37 -84q123 20 131 21q172 0 229 -152q6 17 6 31q0 111 -158 152q-39 10 -245 32zM594 1214q20 -35 42.5 -66.5t68.5 -31.5q31 0 166.5 -58.5t201.5 -58.5q0 41 -18 97q-14 14 -105 28q-61 8 -121 17q-78 25 -235 73z" />
<glyph unicode="6" horiz-adv-x="1155" d="M49 723q0 109 84 375q68 211 248 354q188 150 403 150q45 0 81 -51.5t36 -98.5q0 -184 -16 -217q-6 -14 -15.5 -17.5t-23.5 -3.5l-25 5q-297 0 -364 -232q-12 -39 -27 -115q162 59 254 60q119 0 186 -21q88 -25 154 -119t66 -188q0 -223 -86 -340q-57 -80 -168 -145 q-117 -72 -207 -72q-178 0 -328 119q-139 111 -211 283q-41 100 -41 274zM109 721q0 -506 491 -506q141 0 245.5 110.5t104.5 254.5q0 164 -51 225q-57 67 -215 67q-176 0 -383 -155q-43 4 -43 76q0 41 33 153q43 160 100 225q156 182 379 211q4 68 4 72q0 33 -8 82l-14 6 q-43 -14 -80 -20q-362 -61 -496 -492q-68 -215 -67 -309zM285 522q0 106 127 174q104 55 221 56q86 0 147 -43q68 -49 68 -136q0 -133 -119 -198q-92 -49 -235 -49q-72 0 -140.5 62.5t-68.5 133.5zM354 190q133 -84 273 -84q25 0 135 37q-41 23 -68 23q-16 0 -46 -5t-44 -5 q-141 0 -250 34zM397 428q47 -45 92 -45q84 0 166 27q109 33 109 92q0 90 -158 90q-82 0 -140 -44t-69 -120zM522 637q14 0 44 5t44 5q106 0 164 -47v6q0 39 -34.5 62.5t-75.5 23.5q-98 0 -142 -55zM559 1212q129 63 250 66q-12 29 -16 45h-29q-43 0 -121 -35 q-84 -37 -84 -69v-7z" />
<glyph unicode="7" horiz-adv-x="1196" d="M25 1427q0 20 12 31q20 16 405 47q356 27 451 27q115 0 143 -12q12 -6 47 -44t43.5 -51.5t14.5 -97.5q8 -75 8 -102q0 -63 -66 -176q-53 -82 -106 -166q-106 -180 -182 -322l-172 -325q-27 -57 -84 -168q-10 -16 -50 -31q-10 6 -163 82q-106 53 -119 71q-8 82 -8 119 q0 29 168 355q154 299 204 385q-76 0 -194 -25q-131 -27 -182 -31q-66 53 -82 66q-59 53 -64.5 68.5t-14.5 144.5t-9 155zM76 1415q27 -147 24 -241h17q96 0 456 51q12 2 47 12t50 10q14 0 30.5 -14t16.5 -27q0 -14 -64 -141q-57 -119 -75 -152q-84 -141 -291 -569 q55 -39 180 -121q131 231 391 701l98 180q78 141 78 164q0 43 -14 104q-12 53 -25 105q-27 2 -71 0q-51 -4 -72 -4q-72 0 -119 -5q-27 -2 -330 -20q-199 -12 -327 -33zM123 1110q10 -12 43 -37.5t43 -25.5q18 0 395 63q12 6 37 61q-100 -20 -258 -34q-233 -23 -260 -27z M258 270q0 -16 2 -51q76 -37 211 -121v19q0 31 -213 153zM1055 1448q4 -33 16 -111q2 -32 14 -73q20 -20 25 -13q4 6 0 37q-6 35 -6 43q0 47 -12.5 74t-36.5 43z" />
<glyph unicode="8" horiz-adv-x="1155" d="M6 592q0 227 100 328q-76 88 -75 237q0 215 125 338t340 123q20 0 180 -57q199 -72 285 -164q104 -113 104 -312q0 -221 -121 -299q145 -145 146 -346q0 -98 -74 -206.5t-164 -147.5q-141 -61 -293 -61q-76 0 -186 36q-367 117 -367 531zM66 592q0 -219 118 -354 q123 -141 342 -142q117 0 215 45q115 51 158 146q51 102 51 166q1 90 -69 188q-20 33 -136 162q-4 18 17 31q66 43 106.5 119.5t40.5 156.5q0 182 -141 314t-326 132q-158 0 -258 -122q-94 -115 -94 -277q0 -125 74 -211q14 -18 14 -28q0 -18 -20 -37q-31 -27 -33 -31 q-59 -80 -59 -258zM225 496q0 102 45 190q57 106 152 107q244 0 317 -185q41 -98 41 -162q0 -88 -67.5 -157.5t-155.5 -69.5q-143 0 -231 64q-100 74 -101 213zM236 1124q0 115 55 195q66 92 176 92q121 0 188 -84q63 -76 64 -199q0 -94 -47 -172q-56 -94 -144 -94 q-111 0 -198 76q-94 78 -94 186zM291 500q0 -123 76 -174q-18 49 -19 100q0 55 41 121q37 59 86 92q0 27 -24.5 49.5t-51.5 22.5q-55 0 -86 -80q-23 -59 -22 -131zM291 1124q0 -68 63 -131v2q0 12 -5 35t-5 35q0 121 105 201q-16 43 -84 55q-29 -27 -51.5 -89.5 t-22.5 -107.5zM401 1059q0 -74 27 -104.5t98 -30.5q61 0 101 71q31 59 30 133q0 103 -106 103q-66 0 -108 -51.5t-42 -120.5zM408 420q0 -80 34.5 -110.5t114.5 -30.5q61 0 112.5 52t51.5 113q0 84 -29.5 122t-111.5 38q-72 0 -122 -55t-50 -129zM860 764q55 -57 96 -153.5 t41 -176.5q0 -59 -8 -86q41 -2 41 94q0 88 -45 191q-53 119 -125 131zM860 1413q109 -150 109 -305q0 -84 -60 -217q94 33 95 196q-1 232 -144 326z" />
<glyph unicode="9" horiz-adv-x="1067" d="M25 1184q0 61 49 176q102 233 358 233q135 0 212 -11t157 -21q84 -16 117 -58q12 -23 34 -67q58 -111 58 -148v-160q-2 -102 -2 -155q0 -35 -7.5 -120t-7.5 -118v-123.5v-124.5q0 -27 -6 -88t-6 -88q0 -244 -29 -288h-125q-27 0 -98 8q-80 10 -92 16q-20 10 -43 43 q-23 25 -45 47q-25 31 -25 56q0 29 6 73q6 53 9 72q20 391 20 412h-55q-59 0 -168 28q-127 37 -221 166q-90 121 -90 240zM72 1186q0 -287 473 -287q70 0 69 -51q0 -37 -6 -94q-8 -76 -10 -92q-6 -154 -18 -457h22q72 -10 215 -21v418q0 172 19 440q26 404 28 441l-12 10 q-16 4 -72 16q-45 10 -73 11q27 0 -105 18q-51 8 -170 8q-223 0 -315 -205q-45 -102 -45 -155zM236 1186q0 47 34 135q33 80 129 98q35 8 172 8q91 0 91 -61q0 -43 -11 -109q-12 -92 -12 -110l-4 -82q-6 -59 -31 -59l-98 28q-84 20 -170 41q-100 35 -100 111zM283 1186 q0 -39 73 -72q0 6 -3 15.5t-3 15.5q0 113 72 168q-27 39 -49 39q-14 0 -31 -11q-8 -6 -33.5 -72.5t-25.5 -82.5zM397 1155q0 -66 68 -74q100 -12 117 -22q2 47 20 231h-92q-35 0 -74 -48t-39 -87zM858 182q0 -10 16 -26q29 -27 50 -56q4 133 4 189q0 31 2 100v103 q0 53 6 144t6 146q0 29 7 100.5t7 100.5q0 23 -4 102q-2 61 0 103q2 14 9 55q6 35 6 55l-49 107q-37 -260 -37 -520q0 -39 -7 -105q-8 -78 -10 -104q-2 -57 4 -248q4 -154 -10 -246z" />
<glyph unicode=":" horiz-adv-x="546" d="M31 964q0 72 48 121t120 49t180 -63q29 -14 80 -59q31 -43 31 -88q0 -102 -62 -156q-8 -6 -67.5 -16.5t-71.5 -10.5q-39 0 -118 44t-101 73q-39 47 -39 106zM37 233q0 72 48 121t120 49t180 -63q29 -14 80 -59q31 -43 31 -88q0 -102 -62 -156q-8 -6 -67.5 -16.5 t-71.5 -10.5q-39 0 -118 44t-101 73q-39 47 -39 106zM105 983q0 -53 34 -96q39 -51 103 -52q43 0 71.5 39t28.5 80q0 47 -39 89t-94 42q-45 0 -74.5 -28.5t-29.5 -73.5zM111 252q0 -53 34 -96q39 -51 103 -52q43 0 71.5 39t28.5 80q0 47 -39 89t-94 42q-45 0 -74.5 -28.5 t-29.5 -73.5zM373 858q25 6 47 12q16 8 16 39q0 66 -45 90q25 -61 -18 -141zM379 127q25 6 47 12q16 8 16 39q0 66 -45 90q25 -61 -18 -141z" />
<glyph unicode=";" horiz-adv-x="671" d="M39 242q0 242 24 274q12 20 72 21q244 0 318 -48q10 -6 76.5 -124.5t70.5 -133.5q12 -57 12 -159q0 -152 -92 -273q-101 -131 -248 -131q-35 0 -82 64l-61 92q2 16 25 43q16 20 32 39q37 51 62 110q-41 2 -111 23q-27 20 -62.5 94t-35.5 109zM51 1050q0 72 48 121t120 49 t180 -63q29 -14 80 -59q31 -43 31 -88q0 -102 -62 -156q-8 -6 -67.5 -16.5t-71.5 -10.5q-39 0 -118 44t-101 73q-39 47 -39 106zM104 221q29 -12 74 -16q55 -8 72 -12q72 -18 72 -119q0 -94 -95 -226q217 84 217 271q0 29 -8 74q-8 55 -10 73q-14 152 -25 174 q-18 31 -227 31h-63q4 -8 4 -20q0 -8 -5.5 -24.5t-5.5 -25.5v-180zM125 1069q0 -53 34 -96q39 -51 103 -52q43 0 71.5 39t28.5 80q0 47 -39 89t-94 42q-45 0 -74.5 -28.5t-29.5 -73.5zM236 -223q37 -43 40 -43q119 0 199 110q72 102 72 226q0 74 -12 112q-2 5 -43 99v-15 q0 -25 9 -73t9 -72q0 -236 -274 -344zM393 944q25 6 47 12q16 8 16 39q0 66 -45 90q25 -61 -18 -141z" />
<glyph unicode="&#x3c;" horiz-adv-x="606" d="M49 653v197q0 -10 14 108q25 184 87 334q82 203 204 256q16 12 49 29q27 -18 52 -37q39 -27 39 -39q0 -55 -29 -170q-39 -152 -43 -172q-35 -197 -35 -379q0 -334 96 -579q4 -12 38 -69.5t34 -65.5q0 -12 -42 -76t-67 -64q-8 0 -84 51q-119 78 -180 193q-41 74 -92 248 q-41 139 -41 235zM109 797q0 -240 47 -396q61 -200 213 -333q-84 258 -117 393q-51 215 -51 407q0 281 139 600q-113 -96 -176 -311q-55 -180 -55 -360z" />
<glyph unicode="=" d="M123 774q0 23 22 30q68 27 371 25q90 0 229 -4q133 -2 158 -2q14 0 45 4t45 4q57 0 90 -61q25 -47 25 -107q0 -211 -15.5 -233.5t-109.5 -22.5q-27 0 -81 -3t-81 -3q-35 0 -104.5 4t-104.5 4q-88 0 -270 -10q-10 0 -29.5 -5t-29.5 -5q-45 0 -146 149q-14 168 -14 236z M123 1235q0 23 22 30q68 27 371 25q90 0 229 -4q133 -2 158 -2q14 0 45 4t45 4q57 0 90 -61q25 -47 25 -107q0 -211 -15.5 -233.5t-109.5 -22.5q-27 0 -81 -3t-81 -3q-35 0 -104.5 4t-104.5 4q-88 0 -270 -10q-10 0 -29.5 -5t-29.5 -5q-45 0 -146 149q-14 168 -14 236z M186 745l13 -168h86q6 0 18 4t19 4h258q35 0 100 11q76 12 104 14q33 2 185 0v151h-29q-16 0 -47 -8t-47 -8q-23 0 -62 8t-57 8q-92 4 -182 5q-209 0 -359 -21zM186 1206l13 -168h86q6 0 18 4t19 4h258q35 0 100 11q76 12 104 14q33 2 185 0v151h-29q-16 0 -47 -8t-47 -8 q-23 0 -62 8t-57 8q-92 4 -182 5q-209 0 -359 -21zM240 512l53 -58q16 6 53 13q98 8 266 8q35 0 105.5 -4t107.5 -4q33 0 95.5 4t93.5 4q-12 22 -37 63q-35 6 -107 6q-49 0 -145 -12t-141 -12h-267q-14 0 -38 -4q-31 -4 -39 -4zM240 973l53 -58q16 6 53 13q98 8 266 8 q35 0 105.5 -4t107.5 -4q33 0 95.5 4t93.5 4q-12 22 -37 63q-35 6 -107 6q-49 0 -145 -12t-141 -12h-267q-14 0 -38 -4q-31 -4 -39 -4z" />
<glyph unicode="&#x3e;" horiz-adv-x="577" d="M39 18q152 379 151 644q0 356 -53 665q-4 27 -41 146q-33 111 -33 120q0 12 23 23q10 -2 59 -39q143 -111 248 -315.5t105 -382.5q0 -57 -17 -224q-18 -174 -32 -215q-84 -260 -261 -397q-74 -57 -106 -57q-33 0 -43 32zM119 92q33 27 86 84q70 109 117 346 q43 207 43 365q0 166 -60 342q-66 199 -174 291q111 -330 111 -830q0 -268 -123 -598z" />
<glyph unicode="?" horiz-adv-x="1038" d="M2 1133q0 289 238 419q51 29 112.5 45.5t143.5 16.5q156 0 274 -94q45 -35 90 -101q109 -147 109 -299q0 -102 -45 -217q-51 -125 -125 -176q0 -8 32 -141q20 -86 21 -144l-8 -26q-135 -45 -193 -45q-29 0 -69 18q-47 16 -58 39q-16 27 -28 102q-12 90 -21 115 q-61 182 -61 281q0 6 57 51q72 55 109 102q59 72 59 146q0 98 -70 98q-92 0 -147 -55q-43 -43 -82 -140q0 -20 3 -61t3 -63q0 -61 -10 -70q-18 -4 -135 -4q-78 0 -90 4q-43 20 -88 119q-2 8 -13 37q-8 20 -8 43zM53 1120q0 -59 53 -59q8 0 27 2t27 2q20 -8 59 -12v137 q0 94 88 160.5t185 66.5q88 0 143 -53t55 -141q0 -170 -215 -303q10 -115 90 -463q53 6 158 24q-4 16 -53 174q-47 147 -47 152q0 18 18 28.5t37 18.5q49 31 107.5 137.5t58.5 165.5q0 188 -86 293q-95 115 -277 115q-188 0 -308 -129t-120 -316zM270 1040l19 -14 q-2 16 -2 35q0 147 84 229q-10 6 -33 6q-27 0 -49 -45q-18 -37 -19 -65v-146zM569 164q0 55 37 91t92 36q209 0 209 -135q0 -53 -30 -97q-35 -49 -86 -49q-221 0 -222 154zM618 160q0 -35 23 -61.5t57 -26.5q33 0 56 39q20 32 20 67q0 25 -23.5 43.5t-52.5 18.5 q-80 0 -80 -80zM696 805q25 -18 64 -41q57 2 110 151q48 127 48 203q0 74 -29 144q6 -33 6 -66q0 -217 -199 -391zM705 733q20 -74 38 -147q35 -113 66 -113q-12 61 -25 121q-14 72 -39 117q-12 8 -40 22z" />
<glyph unicode="@" d="M94 1034q0 53 78 166q72 102 125 146q31 27 51 30h58q20 0 63 7.5t63 7.5q92 0 222 -29q145 -31 207 -72q18 -12 33.5 -51t15.5 -65q0 -10 -11.5 -20.5t-19.5 -10.5q-10 0 -33 22q-12 -23 -28 -22q-16 0 -34 38t-48 38q43 -29 43 -60q0 -8 -11.5 -19.5t-19.5 -11.5 q-4 0 -53 48q-6 6 -60 32l-20 -4l35 -35q27 -27 26 -32q0 -31 -41 -31q-14 0 -57 47q-27 33 -55 66l-29 -5q66 -37 65 -59q0 -10 -11 -20.5t-19 -10.5q-4 0 -88 56q0 -6 5 -20.5t5 -20.5q0 -43 -29 -43q-12 0 -29.5 37.5t-76.5 37.5q-137 0 -195 -137q182 -45 258 -45 q6 0 19.5 14.5t17.5 16.5q35 20 92 20q104 0 137 -51q41 2 121 15q12 4 37 26.5t60 22.5q94 0 121.5 -19.5t27.5 -105.5q0 -98 -139 -99q-20 0 -43 2q2 -14 17.5 -51t15.5 -43q0 -20 -53.5 -66t-73.5 -46q-27 0 -27 32q0 18 44 48t44 38q0 6 -19.5 41t-21.5 44.5t-14 101.5 h-90q0 -76 -45 -101q-33 -18 -119 -18q-80 0 -101 59q-2 27 -10 74q-2 2 -4 2q-10 0 -27.5 -4t-25.5 -4q-10 0 -26.5 4t-24.5 4t-17.5 -13t-15.5 -13q-4 0 -43 25.5t-62 25.5q-8 0 -18 -14.5t-10 -22.5q0 -27 49 -47q20 29 37 28q31 0 30 -30q0 -31 -36 -31q-6 0 -7 4 q-4 -10 -4 -31q0 -137 33 -256q6 -20 33 -63q18 -29 18 -78v-6q23 -6 191 -41q109 -25 192 -55q27 6 80 14q37 70 74 70q16 0 96 -35v-31q-12 -8 -49 -8t-76 -41q18 -35 19 -37q0 -41 -49 -61q-39 -16 -86 -17q-31 0 -54 37q-27 -39 -12 -78q-39 25 -39 64q0 20 12 39 q-53 18 -206 51q-129 27 -199 61q6 57 34.5 59.5t28.5 37.5q0 31 -10 44t-24 27q-39 41 -46 303q-100 51 -90 131q-16 16 -32.5 33t-16.5 43zM561 872h33q4 23 33 54q41 47 41 49h-27q-4 -10 -49 -45q-33 -27 -31 -58zM635 498q0 29 117 45q78 10 141 10q10 0 20 -2l-39 -39 q43 -23 127 -70q31 45 31 60q0 8 -4 24.5t-4 26.5q0 27 57 68q6 -5 6 -17q0 -4 -16 -21.5t-18 -21.5q2 6 2 -49q0 -41 -41 -72l14 -8v-16q0 -4 -12 -4q-47 0 -111.5 38.5t-70.5 38.5q-27 0 -83.5 -11t-84.5 -11q-8 0 -19.5 10t-11.5 21zM748 238h24q12 -1 51 30 q-4 2 -16 11.5t-21 9.5q-8 0 -38 -15v-36zM913 1243l17 -29h6l-14 31zM920 897q33 -10 41 -10q18 0 59 125q-12 -8 -100 -115z" />
<glyph unicode="A" horiz-adv-x="1421" d="M0 252q0 80 41 213q27 82 53 164q6 23 160 661q27 109 74 199q14 8 41 22q51 27 114 37q45 4 92 11q29 6 107 24q66 16 74 16q20 0 75.5 -27.5t63.5 -37.5q31 -78 90 -207q45 -86 107 -233q72 -168 108 -244q55 -111 113 -221q80 -158 80 -174q0 -29 -33 -45 q-53 -16 -158 -58q-57 -33 -168 -86q-12 -4 -63 -30q-41 -20 -49 -21q-39 0 -111 84t-74 111q-16 141 -67 315q-49 -10 -123 -37q39 -266 39 -381q0 -66 -15 -80q-23 -27 -96 -75q-4 -10 -22 -27q-154 -82 -199 -82q-23 0 -121 68q-78 55 -82 59q-51 43 -51 82zM72 262 q0 -14 8 -22h24q45 0 172 63q102 53 144 82q0 29 -5 91l-5 61v229q0 29 125 84q113 51 137 51q43 0 82 -162q29 -135 55 -270q47 20 178 59q112 33 180 74l-422 926q-57 -27 -192 -48.5t-195 -52.5q-37 -113 -51 -190q-27 -143 -47 -223q-12 -55 -108 -426 q-80 -299 -80 -326zM164 188q86 -72 94 -71q12 0 102 45q101 49 134 80q-14 10 -35 30.5t-29 20.5t-115 -53q-55 -27 -151 -52zM422 1061q0 115 51 205q61 32 117 32h10q30 -30 57 -180q0 -39 -20 -47q-145 -61 -172 -61q-43 0 -43 51zM508 1106q18 6 57 20q-6 12 -22.5 38 t-22.5 38q-12 -68 -12 -96zM825 379q80 -80 103 -80q8 0 139 63q162 80 209 103q-51 70 -55 70q-10 0 -78 -31q-86 -37 -111 -47q-51 -10 -139 -33q-20 -8 -41 -17.5t-27 -27.5z" />
<glyph unicode="B" horiz-adv-x="1200" d="M61 410q0 25 72 315q43 170 84 338q4 27 10 76q18 66 54 200q2 16 28 66q18 43 64 127q4 14 8 27q8 23 27 30q4 2 41 2q80 0 284 -57q43 -12 88 -25q61 -20 115 -53q14 -10 70 -84q63 -82 77 -123q66 -188 66 -274q0 -111 -62 -225q-68 -127 -167 -154q47 -61 57 -131 q2 -16 2 -103q0 -352 -397 -352q-360 0 -461 166q-12 20 -37 123q-23 96 -23 111zM129 403q334 -229 520 -229q25 0 40.5 6t21.5 8q76 6 140 83t64 163q0 20 -8 51q-27 111 -157 172q-14 8 -15 31q0 14 78 53q96 49 145 103q80 86 80 209q0 86 -39 192q-45 127 -112 164 q-137 72 -398 121q-27 2 -71 2q-84 -180 -142 -469q-20 -102 -71 -295q-55 -207 -72 -283q-4 -14 -4 -82zM135 305q0 -10 11.5 -47t17.5 -45q51 -78 186 -115q103 -30 224 -30h8q27 0 47 8q-31 31 -117 53q-104 29 -156 57q-129 74 -221 136v-17zM315 446q0 20 50 256 q4 18 19 40t30 22q10 0 22 -10q109 -8 196 -96.5t87 -188.5q0 -63 -60.5 -115.5t-115.5 -52.5q-41 0 -134.5 57.5t-93.5 87.5zM379 471q0 -10 31 -37q32 152 32 144q0 8 -10 36.5t-12 36.5q-41 -145 -41 -180zM438 983q0 27 43 183.5t60 179.5q22 32 51 32h2q100 0 266 -110 q37 -25 53 -109q2 -10 2 -45q0 -111 -68.5 -167t-174.5 -56q-25 0 -115 22.5t-104.5 35t-14.5 34.5zM449 408q0 -18 38 -35q33 -12 52 -13q69 1 69 54q0 29 -31.5 64.5t-68.5 35.5h-27q-33 -100 -32 -106zM502 987q31 0 51 -6q8 35 33 125q22 76 22 82q0 8 -35 96 q-27 -92 -71 -297zM608 961q10 0 32 -3.5t28 -3.5q41 0 75 7q18 4 58.5 31t40.5 50q0 49 -58 84q-49 31 -106 35q-10 -33 -35 -100.5t-35 -99.5z" />
<glyph unicode="C" d="M47 899q0 117 23 213q35 145 167 274.5t275 145.5q191 22 319 22h11h45q147 -88 147 -124q0 -66 -8 -160q-12 -129 -28.5 -134.5t-38 -11.5t-156.5 -51q-90 -27 -148 -74q-29 -23 -55.5 -70.5t-26.5 -82.5q0 -133 64 -193h12q84 0 172 11q14 2 58 12q37 8 57 8 q23 0 95.5 -79t78.5 -103q13 -58 23 -226q-143 -65 -323 -65h-5q-379 0 -653 293q-41 45 -76 188q-29 127 -29 207zM119 905q0 -68 31 -190q33 -135 65 -176q80 -94 231 -150q135 -49 273 -49q25 0 112 27q80 25 117 39q-12 72 -26 212q-106 -36 -340 -36h-13 q-57 0 -133 79.5t-92 141.5q-14 53 -14 106q0 174 182 269q131 70 336 86q4 74 18 219h-69q-209 0 -324 -37q-166 -51 -252 -193q-18 -23 -49 -67q-53 -100 -53 -281zM403 913q0 -74 35 -131q20 -35 88 -104q-24 53 -24 136v7q-1 173 192 277q-51 28 -104 28h-4 q-82 0 -132.5 -64.5t-50.5 -148.5zM922 1229q23 -12 36 -31q0 35 5.5 101.5t5.5 99.5q0 12 -11.5 24.5t-21.5 24.5q-2 -74 -14 -219zM991 535q0 -135 72 -166q-4 51 -10 102q-4 41 -62 96v-32z" />
<glyph unicode="D" horiz-adv-x="1208" d="M23 344q0 35 71 295q43 164 88 328q35 139 78 381q49 264 98 264q166 0 332 -70q369 -160 436 -467q18 -82 37 -164q14 -76 14 -145q0 -22 -1 -43q-12 -195 -86 -330q-113 -203 -207 -270q-121 -90 -350 -90h-29q-317 4 -375 108q-106 190 -106 203zM88 344 q203 -113 412 -113q94 0 174 31q29 10 157 76q111 57 160 160q25 53 64 219q24 112 24 192q0 211 -102 346q-90 121 -291 213q-152 72 -305 72q-6 -43 -31 -108q-27 -82 -33 -109q-20 -115 -67 -340q-45 -199 -162 -639zM109 260q0 -4 34 -70q23 -41 50 -57q72 -41 225 -41 q224 0 287 23q-35 20 -70 43q-33 16 -105 20q-143 8 -208 17q-127 18 -213 65zM295 512q0 12 151 463q14 57 43 172q25 104 27 106q25 76 55 76q25 0 140.5 -79t160.5 -158q48 -87 48 -226q0 -16 -19 -100q-2 -27 -14 -76q-115 -258 -414 -258q-59 0 -108 14q-70 23 -70 66z M496 498q45 2 131 20q72 27 134 93.5t62 136.5q0 78 -47 147.5t-119 103.5q-37 -129 -73 -258q-49 -168 -88 -243zM608 1237q27 -63 62 -188q127 -66 178 -152v37q0 109 -78 184q-27 29 -162 119z" />
<glyph unicode="E" horiz-adv-x="1214" d="M14 1253q0 39 30 110t58 85q53 27 380 103.5t386 76.5q39 0 62 -102q16 -74 16 -135q0 -18 -18.5 -65.5t-32.5 -55.5q-68 -41 -219 -72q-170 -37 -230 -63q10 -70 21 -105l317 41q6 -74 35 -219q-16 -76 -24 -92q-18 -29 -74.5 -38t-112.5 -17q-86 -12 -86 -31l19 -144 q340 92 475 93q33 0 59 -17q8 -6 28.5 -105.5t20.5 -119.5q0 -27 -12 -84q-14 -68 -24.5 -76t-385 -104.5t-389.5 -96.5q-49 0 -65 19q-10 29 -29 74q-59 129 -102 438q-29 229 -58 461q-4 23 -26 121q-18 76 -19 120zM70 1249q0 -37 16 -125q23 -119 23 -127 q39 -262 49 -325q27 -174 61 -324q18 -74 49 -219l31 64q0 47 -25 137q-33 111 -36 135q-39 221 -78 440q-53 295 -64 430q-27 -68 -26 -86zM160 1393q4 -55 16 -164q27 -154 72 -465q0 -4 41 -197q4 -43 16 -125q2 -16 33 -100q20 -63 20 -98h15q80 0 325 73 q291 91 342 101q-16 92 -16 133l-524 -102l-19 12q-2 29 -27.5 178t-25.5 152q0 27 135 51l172 28q-8 43 -20 127h-15q-39 0 -155.5 -26.5t-124.5 -26.5q-20 0 -25 10q0 2 -19.5 143.5t-19.5 147.5q0 18 17 27q8 4 495 139q-12 76 -12 154h-51q-10 0 -300 -78t-345 -94z" />
<glyph unicode="F" horiz-adv-x="1314" d="M55 322q0 78 54.5 648t64.5 588.5t49 18.5q12 0 40 -4t42 -4q580 0 864 -66q20 -6 82 -127l2 -28v-10q0 -37 -12 -95l-20 -106q-93 -15 -384 -15h-102q-4 0 -151 -12q0 -16 -4 -45q82 -10 161 -21q76 -20 107 -118q2 -8 2 -43q0 -123 -6 -168q-18 -10 -87 -14.5 t-133.5 -8.5t-66.5 -4q-18 -74 -45 -260q-23 -168 -53 -258q-16 -53 -32.5 -53t-49.5 -5.5t-51 -5.5q-123 0 -168 15q-31 10 -68 90q-35 74 -35 111zM121 317q-1 -2 -1 -6q0 -6 2 -14q3 -14 3 -21q35 0 102.5 -2t100.5 -2q12 199 53 570q6 29 39 28q18 0 55 -4t55 -4 q29 0 87.5 3t87.5 3q6 14 6 111h-19h-9q-43 0 -140 16q-121 18 -135 35q16 227 45 234q55 14 249 15q147 0 375 -9q15 37 15 168q-215 23 -430 43q-262 26 -429 26h-12zM385 238q0 -6 11.5 -33t13.5 -33q20 150 63 449q14 94 16 94v-2l-47 57q-10 -115 -28 -348 q-2 -27 -15.5 -89.5t-13.5 -94.5zM477 1075h37q14 68 14 64q0 8 -32 53q-8 -63 -19 -117zM754 881q0 -29 13.5 -48.5t29.5 -39.5v114q0 8 -17.5 29.5t-19.5 26.5q2 -16 -2 -43t-4 -39zM1149 1233q0 -8 10 -19q12 -16 15 -18q22 142 22 162q0 -2 -29 55q0 -31 -9 -95.5 t-9 -84.5z" />
<glyph unicode="G" horiz-adv-x="1505" d="M61 633q0 207 68 377q78 201 244 350q188 168 385 168q4 0 186 -4q119 -47 160 -123q2 -4 2 -60q0 -41 -14 -202l-35 -17l-15 4q-279 -49 -397 -114q-197 -111 -196 -340q0 -238 237 -238q121 0 143 49q-55 68 -57 72q-29 43 -29 84q0 31 2.5 90t2.5 88q35 51 284 51 q18 0 52 -5t49 -5h170q14 -4 102 -94v-143q0 -49 -6 -140q-12 -2 -52 -6t-59 -4q-39 0 -67 -33q-18 -25 -39 -76q-16 -41 -31 -81q-59 -129 -184 -175q-86 -34 -245 -34h-9q-115 0 -248 49q-86 31 -198.5 129t-160.5 178q-14 27 -29.5 98.5t-15.5 106.5zM139 674 q0 -156 49 -238q143 -231 500 -231q115 0 187.5 24.5t135 103.5t68.5 150q2 49 15 113q12 19 186 33l4 96q0 14 -6 37.5t-6 34.5h-20q-42 0 -101 6q-82 10 -119 10q-45 0 -221 -25q-4 -47 -6 -153q18 -4 65 -4q35 0 35 -51q0 -205 -215 -205q-145 0 -260 99t-115 243 q0 186 107 340q115 164 293 196q49 12 98 23q61 14 100 14q27 0 50 -4v45q0 41 -9 125q-29 8 -106 12q-15 1 -30 1q-95 0 -173 -23q-221 -68 -369 -305q-137 -223 -137 -467zM414 190q39 -35 155 -57q98 -20 172 -20q94 0 254 51q-29 14 -45 14q-43 0 -129 -16.5t-133 -16.5 q-113 0 -274 45zM518 1057q0 -45 19 -64q98 94 229 131q49 12 260 45q-31 43 -45 54q-23 14 -72 14q-63 0 -194 -43q-147 -47 -164 -88q-2 -8 -17.5 -23.5t-15.5 -25.5zM815 580q10 -14 31 -41l8 41h-39zM1151 557q16 -23 53 -65q40 16 109 16h16q-25 63 -41 63 q-43 0 -137 -14z" />
<glyph unicode="H" horiz-adv-x="1449" d="M80 524q0 25 12 68q14 53 17 70q18 121 59 313q51 244 65 311q8 53 19 107q14 61 43 98l18 8h-2q0 2 90 2q174 0 220 -18q20 -8 77 -92q18 -25 35 -46.5t17 -56.5q0 -33 -19 -96q-23 -82 -24 -96q78 -6 161 -21q12 27 35 180q20 139 34.5 150.5t66.5 11.5q43 0 125.5 -11 t124.5 -11t59.5 -13.5t50.5 -183.5q33 -158 33 -199q0 -51 -83 -389t-108 -393q-41 -94 -80 -94q-37 0 -155 16q-129 18 -144 31q-57 162 -57 195q0 41 21.5 122.5t21.5 120.5q-35 16 -164 33q-49 -139 -151 -420q-39 4 -193 51q-160 49 -169 66.5t-32.5 91.5t-23.5 94z M150 510q224 -60 224 -64h-1q20 66 55 197q43 207 72 207q256 0 411 -41q-29 -150 -75 -453q143 -20 170 -20q63 0 74.5 24.5t25.5 118.5q10 66 18 131q6 33 50 191q73 274 73 520q-86 12 -258 27q-18 -113 -55 -338l-8 -9q-180 31 -279 31q-141 0 -141 37q0 49 29 172 q20 90 38 178q-131 10 -180 11q-23 0 -59 -11q-45 -131 -113 -458q-72 -342 -71 -451zM430 444q0 -29 19 -67q14 -31 30 -64l117 353q0 20 -68 100q-18 -37 -57 -162q-41 -131 -41 -160zM567 1126q23 -6 70 -16q22 65 49 186q-18 33 -51 78q-20 -47 -39 -123 q-27 -111 -29 -125zM1120 344q0 -20 10 -57q14 -47 17 -58q45 109 84 287q29 145 59 293q24 84 51 168q0 29 -16 120t-25 107l-151 -755q2 -20 -13.5 -57.5t-15.5 -47.5z" />
<glyph unicode="I" horiz-adv-x="1249" d="M27 1327q20 39 67 111q16 20 92 30q213 35 598 121q137 31 146 31q27 0 59 -109q27 -96 27 -135q0 -20 -20.5 -87.5t-30.5 -74.5q-31 -12 -95.5 -23t-95.5 -24q8 -70 37 -178q37 -141 45 -178q8 -74 45 -225q10 2 100 22q66 16 101 17l28 -9q16 -27 43 -134t27 -144 q0 -20 -65 -150q-150 -43 -385 -88q-170 -35 -478 -86q-29 43 -55 127q-23 66 -43 131q0 35 68 181q111 31 237 55q-33 129 -57 309q-20 158 -41 313q-25 -2 -158 -26q-125 -20 -131 -21q-14 0 -35 109q-14 45 -30 135zM74 1343q0 -8 14 -97t16 -93l25 72q0 29 -14 78 q-23 76 -23 77q-8 -12 -18 -37zM154 1415q10 -55 32 -166q143 37 263 37q29 0 40 -20q20 -33 37 -140q10 -78 23 -153q6 -37 61 -223q41 -141 41 -220q0 -47 -57 -63q-47 -8 -92 -14q-86 -16 -205 -43v-17q0 8 63 -200q263 51 783 147v12q0 43 -19 105q-16 49 -32 100 q-178 -39 -218 -39q-37 0 -59 121q-12 78 -22 156q-16 51 -45 155q-25 113 -93 340q0 31 131 60q80 16 162 30q-4 139 -41 181q-123 -31 -375 -84q-14 -2 -378 -62zM225 272q0 -8 70 -168q11 10 27 39q-2 29 -31 101q-43 100 -43 102q-23 -68 -23 -74zM420 1130 q4 -41 20 -110q23 -84 27 -111q8 -57 57 -391q23 5 56 21q-4 119 -58 319q-57 221 -67 316z" />
<glyph unicode="J" horiz-adv-x="1345" d="M31 358q0 16 63.5 92t81 86.5t77.5 35t73 24.5l131 -112q131 -113 188 -113q98 0 98 159q0 115 -36 271q-35 131 -72 264q-35 -2 -146 -53q-27 6 -85 50t-73.5 68.5t-47 142.5t-33.5 150l18 27q29 12 434.5 89t432.5 77q16 0 73.5 -58.5t65.5 -78.5q18 -45 18 -199 q0 -16 -6 -35q-29 -25 -106 -51q-59 -18 -117 -37q125 -408 125 -608q0 -195 -127 -307q-102 -90 -311 -144q-152 -39 -244 -39q-117 0 -242 62.5t-186 159.5q-47 72 -47 77zM102 356q119 -231 418 -231q76 0 225 33q139 29 207 80q88 68 88 190q0 121 -49 334l-82 332 q-2 14 -26 96q-23 76 -23 80q0 27 111 51q69 15 141 29l-45 213l-750 -158v-14q0 -47 72 -215h12q192 67 214 67h1q63 0 138 -319q61 -279 61 -392q0 -119 -74.5 -179t-199.5 -60q-84 0 -179 67q-78 59 -155 119q-16 -6 -53 -55q-25 -35 -52 -68zM942 1208q39 -102 94 -383 q57 -287 58 -383q0 -57 -41 -147q86 100 86 252q0 59 -50.5 317t-70.5 291q-14 20 -34.5 30.5t-41.5 22.5zM1133 1552l12 -51q6 -51 24 -145q21 -21 68 -60v45q0 82 -4 95q-16 37 -100 116z" />
<glyph unicode="K" horiz-adv-x="1345" d="M76 1438q0 18 11 30.5t147.5 55.5t164.5 43q-6 0 37 -6q41 -25 121 -95q35 -119 96 -284q123 327 152 327t151.5 -71.5t135.5 -98.5q41 -82 41 -127q0 -27 -66 -216t-84 -214q2 -25 74 -92q98 -90 133 -135q72 -90 72 -172q0 -27 -179 -180q-68 0 -141 73 q-57 61 -113 123q39 -190 39 -245q0 -25 -13 -32t-169 -45t-172 -38q-27 0 -88 46t-78 75q-12 20 -142 625.5t-130 652.5zM131 1440q2 -23 72 -318q12 -86 43 -258q16 -78 55 -219q43 -152 55.5 -217.5t22.5 -126.5q14 -78 35 -123q137 20 151 25q92 18 146 43q6 18 6 28 q0 57 -41 174t-41 179q0 8 9 19t18 11q16 0 161.5 -173t163.5 -175q172 150 172 168q0 6 -121 135q-113 119 -139 148q-2 0 -35 28q-29 23 -28 27q0 33 82 225q35 86 100 287q-49 33 -100.5 69t-102.5 56q-57 -139 -117 -276q-96 -219 -137 -236q-35 61 -100 320 q-63 248 -68 251q-18 -4 -262 -71zM475 133q23 -45 47 -45q16 0 130 31t139 41q-53 43 -60 43q-6 0 -115 -33q-115 -33 -141 -37zM1044 274q10 -10 27 -18q10 2 71.5 56.5t61.5 60.5q0 10 -10 39q-90 -49 -150 -138z" />
<glyph unicode="L" horiz-adv-x="1462" d="M92 1524q4 2 178 32q113 20 179 21q61 0 196 -160q27 -135 72 -403q6 -104 12 -209q8 -147 37 -195q291 80 414 80q39 0 102 -59q57 -55 70 -94q8 -20 29.5 -146.5t21.5 -146.5q0 -33 -107 -51q-70 -8 -139 -17q-203 -33 -573 -80q-20 -4 -86 -20q-53 -14 -84 -15 q-33 0 -101.5 58.5t-74.5 89.5q-33 199 -72 553q-41 391 -66 553q-8 57 -8 209zM143 1452q0 -68 27 -213q35 -199 39 -221q16 -225 67 -676q12 -37 27 -113q74 12 219 41q240 62 721 119q-16 76 -45 225h-57q-86 0 -257 -43t-253 -43q-10 0 -28.5 -3t-29.5 -3q-23 0 -38 135 q-8 143 -35 433q-20 141 -62 426q-209 -37 -295 -37v-27zM516 1448q0 -68 19 -178q31 -166 30 -176q20 -174 62 -519q24 7 73 19q-27 72 -34 190q-6 96 -11 195q-27 133 -59 405l-80 78v-14zM1257 541q0 -90 27 -150q18 -16 51 -51q-6 70 -37 188q-14 12 -41 37v-24z" />
<glyph unicode="M" horiz-adv-x="1671" d="M25 362q-5 9 -5 33.5t5 63.5q23 205 45 409q29 231 61 408q2 39 27 108q127 174 348 175q367 0 391 -48q12 -23 23 -63q12 -57 14 -68q31 68 63.5 93.5t102.5 25.5q20 0 170 -59q180 -68 192 -72q41 -12 82 -25q55 -18 68 -43q6 -14 6 -57q0 -129 -86 -547 q-90 -428 -141 -522q-12 -20 -71 -69.5t-77 -49.5t-190 82q-154 74 -205 103q41 193 145 444v10q-10 -6 -61 -69q-43 -57 -55 -58q-23 0 -116 25.5t-111.5 39t-26.5 54.5q-4 33 -9 66q-23 -129 -73 -390q-10 -41 -56 -92q-51 -55 -90 -55q-12 0 -116 35q-115 39 -140.5 44 t-60.5 25q-41 23 -53 43zM80 416q29 10 88 30q14 80 41 238q30 252 104 758q-74 -55 -98 -99q-6 -12 -20 -108q-33 -176 -101 -641q-4 -63 -14 -178zM248 451q41 -12 225 -78q41 207 82 413q70 340 90 363q8 6 21 6q29 0 77 -188q31 -119 64 -238q37 -10 115 -24 q70 111 137 221q115 182 133 182q37 0 37 -66q0 -152 -53 -360q-49 -176 -99 -352q150 -47 260 -88q23 51 31 96q121 545 182 876l9 46q-139 47 -416 153q-154 -272 -197 -272q-27 0 -57 145q-33 164 -49 187q-199 30 -261 30h-4q-49 0 -184 -14q-27 -102 -43 -246l-24 -250 q-6 -51 -48 -270q-28 -151 -28 -253v-19zM641 854q0 -33 16 -86q18 -70 23 -88q20 14 59 39q-23 94 -67 280q-2 -2 -21 -71q-10 -43 -10 -74zM924 305q41 25 90 45q59 180 96 377q-23 -10 -63 -39q-10 -12 -62 -180q-47 -150 -61 -203zM956 1280q0 -12 7 -31q67 109 114 183 h-41q-20 -20 -50 -73.5t-30 -78.5z" />
<glyph unicode="N" horiz-adv-x="1355" d="M16 1231q0 16 61.5 101t76.5 89q213 57 352 58q25 0 82 -88q35 -57 69 -115q37 92 52 119q31 61 71 104q27 27 135 51q96 23 150 23q8 0 24.5 8t24.5 8q41 0 86 -270q31 -172 55 -461q18 -231 39 -463q0 -8 6.5 -27.5t6.5 -31.5q0 -18 -7 -43q-35 -129 -96 -176 q-47 -37 -145 -37q-25 0 -85.5 3t-96.5 3q-18 0 -56.5 -5t-54.5 -5q-41 0 -72 63q-25 47 -47 97q-4 -18 -14 -54q-35 -98 -82 -121q-31 -16 -148 -16q-33 0 -97 -9t-95 -9q-43 0 -68 129q-10 84 -20 170q-18 145 -53 436q-53 399 -54 469zM68 1212q6 -72 30 -223 q33 -199 37 -223q12 -133 43 -397q18 -76 43 -232q47 58 47 60q0 27 -15 83t-17 80q-18 133 -50 402q-8 201 -49 563q-20 -43 -69 -113zM184 1358q0 -29 15 -88q18 -74 21 -88.5t42 -438.5q20 -168 66 -503q10 -4 20 -4q27 0 84 9t85 9t69 16q-10 61 -31 183q-4 12 -57 217 q-35 133 -35 217q0 41 31 41q27 0 172 -287q86 -172 170 -344q18 -4 28 -4q68 0 185 29q125 28 182 32v15q0 98 -55 546q-10 96 -76 617q-41 -20 -129 -35q-70 -10 -140 -22q4 -115 58 -428q43 -264 43 -403v-23v-27q-16 -14 -29 -14q-35 0 -94 133q-35 86 -70 174 q-147 356 -239 530q-207 -39 -316 -45v-14zM573 651q0 -100 68 -256q55 -123 111 -243l32 106q0 18 -211 410v-17zM717 1270q0 -113 141 -490q-57 291 -90 594q-51 -61 -51 -104z" />
<glyph unicode="O" horiz-adv-x="1173" d="M25 729v193q0 -8 30 153q8 59 45 189q37 88 156 196q100 90 137 99q140 40 192 40h3q160 0 286 -180q98 -141 162 -366q49 -181 49 -287q0 -150 -73 -317q-92 -209 -246 -279q-47 -27 -96 -53q-41 -20 -97 -21q-203 0 -337 105q-74 55 -144 243q-68 176 -67 285zM72 889 v-15q0 -96 24 -208q23 -88 45 -177q8 -31 31 -75q20 -37 41 -76q33 -63 53 -74q8 -6 51 -6q8 0 46.5 10.5t48.5 12.5q-141 98 -222 278q-73 162 -73 335q0 124 8 177q6 45 45 176q-16 -10 -41 -57q-18 -74 -37 -146q-18 -82 -20 -155zM180 901q0 -348 260 -559 q33 -27 101.5 -53.5t109.5 -26.5q170 0 277 164q94 141 94 305q0 205 -102 463q-137 346 -363 346q-215 0 -313 -254q-63 -168 -64 -385zM424 1081q0 270 123 271q66 0 90 -25q78 -72 142.5 -222.5t64.5 -254.5q0 -100 -41 -170q-51 -88 -148 -88q-143 0 -200 213 q-31 121 -31 276zM483 973q0 -39 37 -166q45 -152 88 -152q33 0 66 66q31 57 31 100q0 4 2 14.5t2 16.5q0 61 -43 170q-55 141 -131 141q-33 0 -52 -28v-162zM676 670l16 -4q18 -4 47 -4q16 12 37 49t19 53h-4q-20 0 -58 -39z" />
<glyph unicode="P" horiz-adv-x="1161" d="M37 1460q0 41 10 56q25 31 193 53q133 16 215 16q305 0 460 -119q179 -137 179 -444q0 -143 -82 -260t-215 -158q-70 -25 -205 -69q-2 -6 -2 -15q0 -57 5 -174t5 -174q0 -78 -39 -88q-24 -7 -67 -7h-11h-19q-36 0 -54 -3q-12 -2 -78 -21q-49 -14 -76 -14q-25 0 -72 59 q-41 51 -55 84q-25 57 -59 606q-33 502 -33 672zM88 1487q0 -549 90 -1264q135 25 275 37v14q0 45 -6.5 135.5t-6.5 135.5q0 20 -10 59t-10 58q0 33 63 43l86 8q96 16 199 57q96 39 172 168t76 238q0 129 -103 219q-84 78 -221 114q-102 27 -129 27q-326 0 -475 -49z M195 172q68 -80 67 -80q27 0 113 20q78 18 132 17h11q-51 78 -55 78q-29 0 -268 -35zM362 1284q0 41 74 49q14 2 111 2h3q202 0 202 -161q0 -109 -119 -183q-104 -61 -221 -65l-25 22v64q0 45 -12.5 136t-12.5 136zM453 1272q72 -72 69 -72q10 0 27 10q12 2 53 7q35 4 53 4 q23 -1 43 -9q-12 33 -52 55.5t-79 22.5q-33 0 -114 -18zM502 649q47 -47 63 -78q115 41 228 80q120 47 188 158l-47 4l-25 -4q-88 -68 -194 -107q-61 -20 -213 -53zM537 1124q0 -20 4 -58t4 -58q157 61 157 137l-34 24q-14 -1 -32 -1q-37 0 -93 3q-6 -16 -6 -47z" />
<glyph unicode="Q" horiz-adv-x="1142" d="M2 678q0 90 6 207q10 233 129 442q141 252 352 252q236 0 377 -266q117 -221 117 -475q0 -225 -33 -289q12 -12 41 -37q113 -100 113 -154q0 -51 -33 -137q-10 -29 -85 -102.5t-101 -73.5q-10 0 -56 43q-29 29 -59 57q-16 14 -25 19q-51 -43 -178 -68q-98 -18 -190 -18 q-53 0 -117 28q-258 113 -258 572zM88 850q0 -74 39 -305q53 -305 328 -305q98 0 276 94q35 18 41 18q25 0 150 -102q37 47 108 139q-47 43 -141 131q-4 18 -4 21q0 23 15 66.5t18 64.5q6 55 6 166q0 229 -105 434q-127 250 -332 250q-78 0 -151 -49q-248 -168 -248 -623z M248 864q0 180 55 312q76 178 232 178q145 0 213 -172q49 -123 49 -287q0 -78 -11 -156q-14 -125 -47 -125q-16 0 -59 64q-18 29 -55 59q-80 -49 -80 -63q0 -4 60.5 -78t60.5 -80q0 -35 -95 -76q-82 -34 -125 -34h-2q-57 0 -92 24q-55 39 -84 203q-20 119 -20 231zM307 205 q18 -41 40 -53.5t69 -12.5q229 0 311 74q2 18 10 55q-132 -86 -282 -86q-74 0 -148 23zM309 864q0 -92 17 -207q23 -158 63 -180q20 -12 55 -12q41 0 62 12q-63 66 -64 101q0 53 68 145q63 88 113 88q7 0 14 -2v20q0 133 -47 230q-59 123 -174 123q-61 0 -78 -76 q-8 -63 -18.5 -127t-10.5 -115zM569 1184q125 -74 125 -416q0 -31 27 -57q6 76 6 131q0 329 -61 356q-10 6 -45 6q-41 0 -52 -20zM936 150l84 86l8 47l-86 -95z" />
<glyph unicode="R" horiz-adv-x="1067" d="M2 186q0 90 82 711q86 635 109 676q10 20 63 35q43 12 76 12q39 0 110 -16q86 -18 109 -23q240 -29 340 -111q125 -100 125 -321q0 -229 -121 -369q-29 -33 -96 -78q-57 -39 -58 -40q205 -330 205 -412q0 -70 -18 -96q-25 -31 -125.5 -85.5t-143.5 -64.5q-49 57 -112 176 q-76 145 -103 189q-6 -20 -6 -76v-66q2 -47 2 -71q0 -174 -59 -174q-20 0 -63.5 10t-61.5 10q-16 2 -45 0q-35 -2 -45 -2q-31 0 -52.5 11.5t-66.5 83t-45 91.5zM74 184q12 -6 35 -6q8 0 36.5 -4t34.5 -4q31 0 68 -6t71 -6q35 295 52 592h20q29 -29 150 -265 q143 -283 159 -309q57 33 172 105q-23 61 -75 182q-4 10 -90 147q-72 115 -72 138q0 4 82 88q98 100 153 180q82 119 82 215q0 43 -39 108q-61 104 -178 142q-2 0 -229 45q-170 33 -184 33q-25 0 -68 -15q-14 -84 -41 -254q-33 -233 -68 -467q-37 -268 -51 -467 q-2 -20 -12 -86q-8 -46 -8 -75v-11zM88 117l41 -60h15q79 0 223 -18q-4 18 -15 49q-16 6 -101 17.5t-110 11.5h-53zM354 1006q0 55 11.5 167.5t11.5 169.5q0 51 74 64q16 2 118 2q76 0 130.5 -49t54.5 -127q0 -121 -102.5 -205t-225.5 -84q-39 0 -55.5 11.5t-16.5 50.5z M418 1120q0 -53 6 -119q25 4 45 5q0 33 3 103t3 103q0 8 -23.5 48t-25.5 47q0 -31 -4 -92.5t-4 -94.5zM438 522l211 -418q10 6 19 15q-88 190 -211 422zM535 1059l2 -31q49 8 96 67.5t51 114.5q-49 37 -80 37q-41 -2 -45 -2q-23 -6 -24 -35q-3 -24 -3 -62t3 -89z" />
<glyph unicode="S" horiz-adv-x="1067" d="M35 360q0 76 125 306q25 0 149.5 -79t231.5 -79q27 0 59.5 31.5t32.5 58.5q0 29 -37 43q-29 8 -57 18q-121 57 -240 117q-104 66 -170 205q-61 129 -61 209q0 61 30 135q33 82 203 181.5t264 99.5q90 0 197 -41q123 -45 162 -113q30 -51 30 -182v-8q0 -37 -44 -93.5 t-81 -56.5q-2 0 -100 37t-158 37q-33 0 -32 -25q0 -45 98 -106q72 -39 141.5 -77t114.5 -110q23 -35 67 -141t44 -176q0 -39 -19 -92q-14 -43 -31 -88q-82 -268 -503 -269q-57 0 -172 15q-141 16 -156 35q-10 27 -31 75q-57 121 -57 133zM96 367q170 -84 361 -84 q125 0 190 14q106 20 174 112.5t68 198.5q0 162 -74 256q-39 49 -158 109q-145 72 -186 102q-90 70 -90 162q0 129 192 129q94 0 199 -45l57 117q0 27 -118 65q-106 37 -148 37q-80 0 -272 -113q-162 -96 -162 -237q0 -160 150 -250q139 -66 278 -129q150 -82 150 -217 q0 -68 -60 -107q-50 -34 -117 -34h-4q-131 0 -338 143q-29 -70 -92 -217v-12zM106 295q33 -61 58 -109q45 -2 145 -14q92 -12 144 -12q159 0 184 39q-53 25 -88 26q34 -1 34 -2q0 -2 -124 -2q-172 0 -353 74zM612 1237q80 -2 176 -51v14q0 6 -2 19.5t-4 17.5q-59 31 -73 31 q-45 0 -97 -31z" />
<glyph unicode="T" horiz-adv-x="1409" d="M14 1210q0 6 17 50q18 53 24 77q10 59 41 176q4 12 57.5 36t63.5 24q127 0 207 -6q27 -2 182 -41q182 -47 254 -62q94 -16 293 -59q66 -10 184 -41q21 -6 21 -39q0 -84 -35 -231q-16 -35 -39 -84q-6 -29 -14 -45.5t-49 -45t-58 -28.5q-68 0 -151 24q-111 35 -121 37 q-12 -125 -43 -358q-10 -68 -39 -152q-20 -68 -43 -133q-12 -55 -53 -164q-12 -20 -66 -71q-61 -55 -86 -56q-39 0 -127 41q-59 29 -119 58q-67 27 -67 66v5l149 838q-27 39 -66.5 54.5t-76.5 27.5q-68 18 -135 37q-104 31 -105 65zM86 1264q20 10 43 30q14 37 31 109 q14 64 12 74v20q-31 -10 -39 -20q-16 -102 -47 -213zM182 1296q92 -4 305 -82q33 -6 64 -14q43 -10 43 -37q0 -4 -11.5 -46t-11.5 -56q-33 -330 -141 -795q82 -29 238 -80q51 145 125 426q12 72 36 342q5 60 5 90v9q0 2 -3.5 20.5t-3.5 24.5q2 27 37 26q4 0 33 -9t39 -9 q94 0 313 -43q49 158 49 213v47q-66 6 -180 31q-59 20 -119 30q-121 20 -378 82q-182 45 -283 45h-109q-6 -29 -26 -106q-20 -68 -21 -74v-35zM305 219q31 20 68 57q37 117 73 336q74 430 72 467v17q-8 -4 -63 -33q-2 -12 -56 -295q-31 -195 -94 -549z" />
<glyph unicode="U" horiz-adv-x="1515" d="M39 692q0 170 72 451q76 303 159 413q111 -8 219 -16q160 -16 185 -57q10 -14 44 -88t34 -82q0 -6 -58 -191q-59 -197 -65 -223q-18 -82 -19 -143q2 -113 72 -113t180 340q61 211 123 424q131 -18 387 -74q20 -37 41 -143q19 -98 19 -143q0 -102 -95 -357 q-25 -68 -49 -133q-31 -74 -67 -125q-147 -205 -375 -278q-90 -27 -187 -27q-168 0 -317 72.5t-242 208.5q-25 37 -45 137q-16 90 -16 147zM111 635q0 -41 53 -150q23 -49 74 -127q55 -51 161 -86q95 -30 180 -30h5q227 0 395 174q154 158 199 389q6 33 67 237 q41 143 41 236v8q-84 10 -250 33q-45 -137 -127 -414q-45 -160 -92 -231q-76 -119 -205 -119q-184 0 -184 250q0 66 33 221q33 147 57 219q27 63 66 195q-45 18 -107 20l18 -1q0 -1 -128 -1q-10 0 -26.5 8.5t-27.5 8.5q-47 0 -135 -345q-67 -256 -67 -488v-7z" />
<glyph unicode="V" horiz-adv-x="1402" d="M25 1554q0 49 38 50q20 0 60.5 -11.5t60.5 -11.5q23 0 70 2t72 2q70 0 110 -31q25 -20 72 -92l37 -59q0 -14 -4 -42t-4 -42q0 -96 12 -244q12 -123 22 -244q113 170 166 259q90 145 150 266q16 47 59 131q10 10 27 10q27 0 177 -66.5t159 -82.5q20 -46 20 -177 q0 -4 -4 -18q-4 -20 -90 -156q-109 -168 -109 -170q-86 -164 -272 -483q-55 -96 -109 -192q-88 -145 -133 -146q-43 0 -174 14q-141 18 -159 31q-8 4 -45 68.5t-48 103.5q-6 18 -16 109l-102 833q-12 96 -27 195q-16 115 -16 194zM86 1532l150 -1268h16h12q113 0 324 -35 q117 166 334 506q43 86 131 254q65 113 196 336q-35 20 -268 107q-27 -86 -100 -205q-63 -98 -127 -195q-66 -113 -131 -225q-111 -186 -127 -186q-25 0 -27 20q-14 199 -47 580q-12 92 -35 276q-247 35 -296 35h-5zM248 207q23 -45 47 -88t86 -43h44h44q25 0 62.5 -4 t62.5 -4v14q0 14 -10.5 45t-8.5 49q-186 31 -233 31h-94z" />
<glyph unicode="W" horiz-adv-x="1603" d="M43 1464q23 14 139.5 40t151.5 26q6 0 80 -4l12 -2q29 -6 83 -42t71 -63q25 -35 51 -233q33 -225 45 -266q14 35 29 67q12 18 61 19q78 0 166 -37q20 -10 47 -41q31 -41 41 -49q27 133 78 360q61 279 82 324h8q23 0 155 -61.5t140 -74.5q14 -23 43.5 -117.5t29.5 -121.5 q0 -84 -47 -266q-35 -133 -69 -269q-2 -2 -41 -235q-31 -172 -53 -215q-18 -35 -273 -35q-88 0 -125 43q-2 2 -67 127q-33 -45 -64 -90q-41 -57 -81 -57.5t-120.5 -2.5t-121.5 -2q-53 0 -125 76q-66 68 -86 127q-27 78 -54 236q-33 188 -45 241q-47 199 -141 598zM109 1423 q41 -176 131 -538q29 -164 106 -488q113 -12 334 -32q33 70 65 137q51 109 72 108q23 0 70 -121q25 -74 51 -147q10 1 23 1q20 0 48 -2q46 -3 64 -3q129 0 150 51q41 106 88 373q33 199 65 397q18 80 43 242q-70 35 -207 102q-43 -201 -86 -401q-63 -291 -102 -365 q-20 -41 -31 -41q-25 0 -65.5 116t-50.5 120q-59 20 -115 20q-6 0 -69.5 -132t-104.5 -132q-35 0 -74 205q-23 127 -43 254q-57 236 -113 328l-24 2h-8q-43 0 -104.5 -19.5t-104.5 -19.5h-8v-15zM391 336q25 -35 50.5 -64.5t74.5 -29.5q29 0 89 5t91 5q-10 23 -28 51 q-18 8 -277 33zM961 281q31 -57 86 -58q4 1 219 15q-14 23 -35 71q-98 -27 -262 -28h-8z" />
<glyph unicode="X" horiz-adv-x="1546" d="M51 543q0 43 254 250q-59 78 -121 155q-63 94 -63 180q0 119 14.5 145.5t166 147.5t173.5 121q-2 0 25 -2q172 -201 278 -395l242 192q197 158 225 158q35 0 127 -111q86 -104 101 -149q20 -58 20 -240q0 -45 -137 -157q-94 -70 -189 -142q80 -96 158 -192 q53 -90 53 -244q0 -39 -128 -133t-171 -94q-25 0 -174 155.5t-151 155.5q-29 0 -225.5 -114.5t-217.5 -114.5q-27 0 -117 92t-98 125q-45 139 -45 211zM137 453q0 -66 33 -115q19 -31 82 -90v61q-113 143 -113 144h-2zM156 553q94 -129 166 -205q98 55 294 166q4 2 61.5 41 t61.5 39q12 0 170 -145q94 -88 191 -177q164 152 164 162q0 8 -127 193.5t-127 193.5q0 20 192.5 192.5t192.5 192.5t-66 103q-59 76 -86 100q-37 -23 -252 -213q-205 -180 -217 -180q-20 0 -40.5 30.5t-129.5 206.5q-74 121 -143 209q-31 -23 -133 -112q-115 -96 -115 -105 q0 -4 132 -189.5t132 -209.5q0 -16 -321 -293zM201 1081q0 -37 11 -56t76.5 -101t73.5 -82q13 -1 29 22q-92 119 -190 256v-39zM776 422q89 -97 271 -285v19q0 45 -115 163q-78 78 -156 154v-51z" />
<glyph unicode="Y" horiz-adv-x="1320" d="M39 1440q4 31 149 92q135 59 177 61q131 -70 167.5 -112.5t71.5 -175.5q16 -63 53 -187q45 74 158 250q141 217 166 217q63 0 187 -116.5t126 -182.5q-141 -223 -250 -348q-43 -47 -86 -96q-55 -61 -69.5 -102.5t-14.5 -180.5q0 -35 -20 -264t-27 -238q-25 -43 -122 -43 q-20 0 -57.5 2t-49.5 2q-23 0 -70 -3t-69 -3q-55 0 -76 25q-8 10 -38 92t-30 94q0 55 8.5 168t8.5 168q0 39 12 118t12 118t-32 92q-27 43 -52 84q-2 2 -233 469zM113 1432q66 -135 202 -406q35 -53 71 -110.5t36 -118.5q0 -39 -12.5 -113t-12.5 -106l-16 -342l12 -7h238 q53 0 55 7q10 18 31 296l16 195q8 94 12 107q2 2 54 38q41 31 202.5 252.5t161.5 253.5q0 16 -71 70q-64 45 -101 61q-53 -86 -188 -299q-162 -252 -191 -252q-25 0 -43 39q-68 178 -221 529q-8 -2 -235 -94zM401 164q14 -31 48 -86q293 4 293 6h-1q-9 37 -32 76 q-20 0 -58.5 -2t-56.5 -2q-16 0 -45 4t-43 4h-105z" />
<glyph unicode="Z" horiz-adv-x="1302" d="M12 1405q0 31 39 43q33 8 66 14q96 31 479 92q10 2 160 35q104 23 162 23q41 0 88 -21q55 -23 71 -53q2 -2 32 -161.5t32 -174.5q-20 -39 -123 -194q-84 -137 -256 -412q25 6 164 53q127 43 139 43q16 0 123 -80q12 -25 30.5 -114.5t18.5 -116.5l-2 -19 q-150 -82 -416 -194q-319 -137 -403 -137q-20 0 -76.5 28.5t-81.5 46t-68 148.5q-37 115 -45 166l410 676q-51 -4 -180 -54q-121 -47 -174 -47q-18 0 -72.5 60.5t-63 86t-31 133t-22.5 130.5zM84 1401q23 -104 47 -213q63 14 74 14q31 0 213 62.5t264 62.5q35 -14 35 -33 q0 -47 -221 -415q-160 -268 -285 -461q2 -31 82 -248h12q82 31 189 59q139 37 182 52q84 27 205 84q190 88 198 92q-10 59 -43 174q-68 -23 -260 -76q-168 -45 -256 -84q-35 8 -35 31q0 10 111 198q98 164 131 220q78 106 221 321q12 23 13 39q0 25 -43 262 q-66 -12 -418 -63q-256 -37 -416 -78zM977 1546q10 -109 47 -266q5 -8 66 -57q-25 135 -52 278q-14 20 -61 45zM1094 612q0 -80 30 -131q19 -31 66 -51q-8 53 -31 139q-16 33 -65 64v-21z" />
<glyph unicode="[" horiz-adv-x="606" d="M49 653v197q0 -10 14 108q25 184 87 334q82 203 204 256q16 12 49 29q27 -18 52 -37q39 -27 39 -39q0 -55 -29 -170q-39 -152 -43 -172q-35 -197 -35 -379q0 -334 96 -579q4 -12 38 -69.5t34 -65.5q0 -12 -42 -76t-67 -64q-8 0 -84 51q-119 78 -180 193q-41 74 -92 248 q-41 139 -41 235zM109 797q0 -240 47 -396q61 -200 213 -333q-84 258 -117 393q-51 215 -51 407q0 281 139 600q-113 -96 -176 -311q-55 -180 -55 -360z" />
<glyph unicode="\" horiz-adv-x="765" d="M41 1462q0 10 14 21q172 49 156 49q39 0 68 -43q10 -14 47 -86q6 -29 26 -90q55 -156 111 -309q57 -164 80 -287q12 -61 96 -262q74 -178 74 -258q-8 -23 -70.5 -46.5t-95.5 -23.5q-29 0 -69 19.5t-55 41t-87 283.5q-43 160 -86 322q-6 20 -115 356q-94 289 -94 313z M104 1440q4 -27 15 -82q35 -92 96 -275q82 -276 248 -831l8 -6q27 16 123 61q-53 119 -107 320q-68 250 -92 321q-31 74 -96 244q-29 98 -100 285h-15q-27 -12 -80 -37zM500 197q55 -18 47 -19q18 0 102 41q-33 33 -37 33q-27 0 -112 -55z" />
<glyph unicode="]" horiz-adv-x="577" d="M39 18q152 379 151 644q0 356 -53 665q-4 27 -41 146q-33 111 -33 120q0 12 23 23q10 -2 59 -39q143 -111 248 -315.5t105 -382.5q0 -57 -17 -224q-18 -174 -32 -215q-84 -260 -261 -397q-74 -57 -106 -57q-33 0 -43 32zM119 92q33 27 86 84q70 109 117 346 q43 207 43 365q0 166 -60 342q-66 199 -174 291q111 -330 111 -830q0 -268 -123 -598z" />
<glyph unicode="^" d="M94 1034q0 53 78 166q72 102 125 146q31 27 51 30h58q20 0 63 7.5t63 7.5q92 0 222 -29q145 -31 207 -72q18 -12 33.5 -51t15.5 -65q0 -10 -11.5 -20.5t-19.5 -10.5q-10 0 -33 22q-12 -23 -28 -22q-16 0 -34 38t-48 38q43 -29 43 -60q0 -8 -11.5 -19.5t-19.5 -11.5 q-4 0 -53 48q-6 6 -60 32l-20 -4l35 -35q27 -27 26 -32q0 -31 -41 -31q-14 0 -57 47q-27 33 -55 66l-29 -5q66 -37 65 -59q0 -10 -11 -20.5t-19 -10.5q-4 0 -88 56q0 -6 5 -20.5t5 -20.5q0 -43 -29 -43q-12 0 -29.5 37.5t-76.5 37.5q-137 0 -195 -137q182 -45 258 -45 q6 0 19.5 14.5t17.5 16.5q35 20 92 20q104 0 137 -51q41 2 121 15q12 4 37 26.5t60 22.5q94 0 121.5 -19.5t27.5 -105.5q0 -98 -139 -99q-20 0 -43 2q2 -14 17.5 -51t15.5 -43q0 -20 -53.5 -66t-73.5 -46q-27 0 -27 32q0 18 44 48t44 38q0 6 -19.5 41t-21.5 44.5t-14 101.5 h-90q0 -76 -45 -101q-33 -18 -119 -18q-80 0 -101 59q-2 27 -10 74q-2 2 -4 2q-10 0 -27.5 -4t-25.5 -4q-10 0 -26.5 4t-24.5 4t-17.5 -13t-15.5 -13q-4 0 -43 25.5t-62 25.5q-8 0 -18 -14.5t-10 -22.5q0 -27 49 -47q20 29 37 28q31 0 30 -30q0 -31 -36 -31q-6 0 -7 4 q-4 -10 -4 -31q0 -137 33 -256q6 -20 33 -63q18 -29 18 -78v-6q23 -6 191 -41q109 -25 192 -55q27 6 80 14q37 70 74 70q16 0 96 -35v-31q-12 -8 -49 -8t-76 -41q18 -35 19 -37q0 -41 -49 -61q-39 -16 -86 -17q-31 0 -54 37q-27 -39 -12 -78q-39 25 -39 64q0 20 12 39 q-53 18 -206 51q-129 27 -199 61q6 57 34.5 59.5t28.5 37.5q0 31 -10 44t-24 27q-39 41 -46 303q-100 51 -90 131q-16 16 -32.5 33t-16.5 43zM561 872h33q4 23 33 54q41 47 41 49h-27q-4 -10 -49 -45q-33 -27 -31 -58zM635 498q0 29 117 45q78 10 141 10q10 0 20 -2l-39 -39 q43 -23 127 -70q31 45 31 60q0 8 -4 24.5t-4 26.5q0 27 57 68q6 -5 6 -17q0 -4 -16 -21.5t-18 -21.5q2 6 2 -49q0 -41 -41 -72l14 -8v-16q0 -4 -12 -4q-47 0 -111.5 38.5t-70.5 38.5q-27 0 -83.5 -11t-84.5 -11q-8 0 -19.5 10t-11.5 21zM748 238h24q12 -1 51 30 q-4 2 -16 11.5t-21 9.5q-8 0 -38 -15v-36zM913 1243l17 -29h6l-14 31zM920 897q33 -10 41 -10q18 0 59 125q-12 -8 -100 -115z" />
<glyph unicode="_" d="M117 420q0 23 22 30q68 27 371 25q90 0 229 -4q133 -2 158 -2q14 0 45 4t45 4q57 0 90 -61q25 -47 25 -107q0 -211 -15.5 -233.5t-109.5 -22.5q-27 0 -81 -3t-81 -3q-35 0 -104.5 4t-104.5 4q-88 0 -270 -10q-10 0 -29.5 -5t-29.5 -5q-45 0 -146 149q-14 168 -14 236z M180 391l13 -168h86q6 0 18 4t19 4h258q35 0 100 11q76 12 104 14q33 2 185 0v151h-29q-16 0 -47 -8t-47 -8q-23 0 -62 8t-57 8q-92 4 -182 5q-209 0 -359 -21zM234 158l53 -58q16 6 53 13q98 8 266 8q35 0 105.5 -4t107.5 -4q33 0 95.5 4t93.5 4q-12 22 -37 63 q-35 6 -107 6q-49 0 -145 -12t-141 -12h-267q-14 0 -38 -4q-31 -4 -39 -4z" />
<glyph unicode="`" horiz-adv-x="706" d="M109 1591q0 115 20 135q14 14 37 19q16 4 43 2q41 -2 45 -2q158 0 209 -16q162 -150 162 -232q0 -41 -2 -82v-84q0 -70 -2 -78q-6 -45 -41 -45q-20 0 -45 -12l-3 -16q-4 -49 44.5 -151.5t48.5 -100.5q0 -43 -148 -43q-49 0 -148.5 66.5t-107.5 115.5q-23 61 -45 123 q-45 129 -55 211q-12 100 -12 190zM168 1618q0 -10 5 -45t4 -70t9 -86q6 -31 13 -61q6 -70 32 -146q63 -178 193 -233q-16 23 -51 166t-35 180q0 20 12 25.5t33 1.5l29 -4q16 0 49 8v110q0 197 -15 205q-33 20 -118 21q-150 0 -138 0q-23 -43 -22 -72zM416 1190 q0 -35 41 -146q43 -117 67 -116q15 0 35 14q-66 113 -78 236q-20 8 -65 34v-22zM510 1587q8 -141 8 -260q23 0 45 -8q0 12 3 43t3 41q0 -16 0 88q0 27 -59 96z" />
<glyph unicode="a" horiz-adv-x="1421" d="M0 252q0 80 41 213q27 82 53 164q6 23 160 661q27 109 74 199q14 8 41 22q51 27 114 37q45 4 92 11q29 6 107 24q66 16 74 16q20 0 75.5 -27.5t63.5 -37.5q31 -78 90 -207q45 -86 107 -233q72 -168 108 -244q55 -111 113 -221q80 -158 80 -174q0 -29 -33 -45 q-53 -16 -158 -58q-57 -33 -168 -86q-12 -4 -63 -30q-41 -20 -49 -21q-39 0 -111 84t-74 111q-16 141 -67 315q-49 -10 -123 -37q39 -266 39 -381q0 -66 -15 -80q-23 -27 -96 -75q-4 -10 -22 -27q-154 -82 -199 -82q-23 0 -121 68q-78 55 -82 59q-51 43 -51 82zM72 262 q0 -14 8 -22h24q45 0 172 63q102 53 144 82q0 29 -5 91l-5 61v229q0 29 125 84q113 51 137 51q43 0 82 -162q29 -135 55 -270q47 20 178 59q112 33 180 74l-422 926q-57 -27 -192 -48.5t-195 -52.5q-37 -113 -51 -190q-27 -143 -47 -223q-12 -55 -108 -426 q-80 -299 -80 -326zM164 188q86 -72 94 -71q12 0 102 45q101 49 134 80q-14 10 -35 30.5t-29 20.5t-115 -53q-55 -27 -151 -52zM422 1061q0 115 51 205q61 32 117 32h10q30 -30 57 -180q0 -39 -20 -47q-145 -61 -172 -61q-43 0 -43 51zM508 1106q18 6 57 20q-6 12 -22.5 38 t-22.5 38q-12 -68 -12 -96zM825 379q80 -80 103 -80q8 0 139 63q162 80 209 103q-51 70 -55 70q-10 0 -78 -31q-86 -37 -111 -47q-51 -10 -139 -33q-20 -8 -41 -17.5t-27 -27.5z" />
<glyph unicode="b" horiz-adv-x="1200" d="M61 410q0 25 72 315q43 170 84 338q4 27 10 76q18 66 54 200q2 16 28 66q18 43 64 127q4 14 8 27q8 23 27 30q4 2 41 2q80 0 284 -57q43 -12 88 -25q61 -20 115 -53q14 -10 70 -84q63 -82 77 -123q66 -188 66 -274q0 -111 -62 -225q-68 -127 -167 -154q47 -61 57 -131 q2 -16 2 -103q0 -352 -397 -352q-360 0 -461 166q-12 20 -37 123q-23 96 -23 111zM129 403q334 -229 520 -229q25 0 40.5 6t21.5 8q76 6 140 83t64 163q0 20 -8 51q-27 111 -157 172q-14 8 -15 31q0 14 78 53q96 49 145 103q80 86 80 209q0 86 -39 192q-45 127 -112 164 q-137 72 -398 121q-27 2 -71 2q-84 -180 -142 -469q-20 -102 -71 -295q-55 -207 -72 -283q-4 -14 -4 -82zM135 305q0 -10 11.5 -47t17.5 -45q51 -78 186 -115q103 -30 224 -30h8q27 0 47 8q-31 31 -117 53q-104 29 -156 57q-129 74 -221 136v-17zM315 446q0 20 50 256 q4 18 19 40t30 22q10 0 22 -10q109 -8 196 -96.5t87 -188.5q0 -63 -60.5 -115.5t-115.5 -52.5q-41 0 -134.5 57.5t-93.5 87.5zM379 471q0 -10 31 -37q32 152 32 144q0 8 -10 36.5t-12 36.5q-41 -145 -41 -180zM438 983q0 27 43 183.5t60 179.5q22 32 51 32h2q100 0 266 -110 q37 -25 53 -109q2 -10 2 -45q0 -111 -68.5 -167t-174.5 -56q-25 0 -115 22.5t-104.5 35t-14.5 34.5zM449 408q0 -18 38 -35q33 -12 52 -13q69 1 69 54q0 29 -31.5 64.5t-68.5 35.5h-27q-33 -100 -32 -106zM502 987q31 0 51 -6q8 35 33 125q22 76 22 82q0 8 -35 96 q-27 -92 -71 -297zM608 961q10 0 32 -3.5t28 -3.5q41 0 75 7q18 4 58.5 31t40.5 50q0 49 -58 84q-49 31 -106 35q-10 -33 -35 -100.5t-35 -99.5z" />
<glyph unicode="c" d="M47 899q0 117 23 213q35 145 167 274.5t275 145.5q191 22 319 22h11h45q147 -88 147 -124q0 -66 -8 -160q-12 -129 -28.5 -134.5t-38 -11.5t-156.5 -51q-90 -27 -148 -74q-29 -23 -55.5 -70.5t-26.5 -82.5q0 -133 64 -193h12q84 0 172 11q14 2 58 12q37 8 57 8 q23 0 95.5 -79t78.5 -103q13 -58 23 -226q-143 -65 -323 -65h-5q-379 0 -653 293q-41 45 -76 188q-29 127 -29 207zM119 905q0 -68 31 -190q33 -135 65 -176q80 -94 231 -150q135 -49 273 -49q25 0 112 27q80 25 117 39q-12 72 -26 212q-106 -36 -340 -36h-13 q-57 0 -133 79.5t-92 141.5q-14 53 -14 106q0 174 182 269q131 70 336 86q4 74 18 219h-69q-209 0 -324 -37q-166 -51 -252 -193q-18 -23 -49 -67q-53 -100 -53 -281zM403 913q0 -74 35 -131q20 -35 88 -104q-24 53 -24 136v7q-1 173 192 277q-51 28 -104 28h-4 q-82 0 -132.5 -64.5t-50.5 -148.5zM922 1229q23 -12 36 -31q0 35 5.5 101.5t5.5 99.5q0 12 -11.5 24.5t-21.5 24.5q-2 -74 -14 -219zM991 535q0 -135 72 -166q-4 51 -10 102q-4 41 -62 96v-32z" />
<glyph unicode="d" horiz-adv-x="1208" d="M23 344q0 35 71 295q43 164 88 328q35 139 78 381q49 264 98 264q166 0 332 -70q369 -160 436 -467q18 -82 37 -164q14 -76 14 -145q0 -22 -1 -43q-12 -195 -86 -330q-113 -203 -207 -270q-121 -90 -350 -90h-29q-317 4 -375 108q-106 190 -106 203zM88 344 q203 -113 412 -113q94 0 174 31q29 10 157 76q111 57 160 160q25 53 64 219q24 112 24 192q0 211 -102 346q-90 121 -291 213q-152 72 -305 72q-6 -43 -31 -108q-27 -82 -33 -109q-20 -115 -67 -340q-45 -199 -162 -639zM109 260q0 -4 34 -70q23 -41 50 -57q72 -41 225 -41 q224 0 287 23q-35 20 -70 43q-33 16 -105 20q-143 8 -208 17q-127 18 -213 65zM295 512q0 12 151 463q14 57 43 172q25 104 27 106q25 76 55 76q25 0 140.5 -79t160.5 -158q48 -87 48 -226q0 -16 -19 -100q-2 -27 -14 -76q-115 -258 -414 -258q-59 0 -108 14q-70 23 -70 66z M496 498q45 2 131 20q72 27 134 93.5t62 136.5q0 78 -47 147.5t-119 103.5q-37 -129 -73 -258q-49 -168 -88 -243zM608 1237q27 -63 62 -188q127 -66 178 -152v37q0 109 -78 184q-27 29 -162 119z" />
<glyph unicode="e" horiz-adv-x="1214" d="M14 1253q0 39 30 110t58 85q53 27 380 103.5t386 76.5q39 0 62 -102q16 -74 16 -135q0 -18 -18.5 -65.5t-32.5 -55.5q-68 -41 -219 -72q-170 -37 -230 -63q10 -70 21 -105l317 41q6 -74 35 -219q-16 -76 -24 -92q-18 -29 -74.5 -38t-112.5 -17q-86 -12 -86 -31l19 -144 q340 92 475 93q33 0 59 -17q8 -6 28.5 -105.5t20.5 -119.5q0 -27 -12 -84q-14 -68 -24.5 -76t-385 -104.5t-389.5 -96.5q-49 0 -65 19q-10 29 -29 74q-59 129 -102 438q-29 229 -58 461q-4 23 -26 121q-18 76 -19 120zM70 1249q0 -37 16 -125q23 -119 23 -127 q39 -262 49 -325q27 -174 61 -324q18 -74 49 -219l31 64q0 47 -25 137q-33 111 -36 135q-39 221 -78 440q-53 295 -64 430q-27 -68 -26 -86zM160 1393q4 -55 16 -164q27 -154 72 -465q0 -4 41 -197q4 -43 16 -125q2 -16 33 -100q20 -63 20 -98h15q80 0 325 73 q291 91 342 101q-16 92 -16 133l-524 -102l-19 12q-2 29 -27.5 178t-25.5 152q0 27 135 51l172 28q-8 43 -20 127h-15q-39 0 -155.5 -26.5t-124.5 -26.5q-20 0 -25 10q0 2 -19.5 143.5t-19.5 147.5q0 18 17 27q8 4 495 139q-12 76 -12 154h-51q-10 0 -300 -78t-345 -94z" />
<glyph unicode="f" horiz-adv-x="1314" d="M55 322q0 78 54.5 648t64.5 588.5t49 18.5q12 0 40 -4t42 -4q580 0 864 -66q20 -6 82 -127l2 -28v-10q0 -37 -12 -95l-20 -106q-93 -15 -384 -15h-102q-4 0 -151 -12q0 -16 -4 -45q82 -10 161 -21q76 -20 107 -118q2 -8 2 -43q0 -123 -6 -168q-18 -10 -87 -14.5 t-133.5 -8.5t-66.5 -4q-18 -74 -45 -260q-23 -168 -53 -258q-16 -53 -32.5 -53t-49.5 -5.5t-51 -5.5q-123 0 -168 15q-31 10 -68 90q-35 74 -35 111zM121 317q-1 -2 -1 -6q0 -6 2 -14q3 -14 3 -21q35 0 102.5 -2t100.5 -2q12 199 53 570q6 29 39 28q18 0 55 -4t55 -4 q29 0 87.5 3t87.5 3q6 14 6 111h-19h-9q-43 0 -140 16q-121 18 -135 35q16 227 45 234q55 14 249 14q147 0 375 -8q15 37 15 168q-215 23 -430 43q-262 26 -429 26h-12zM385 238q0 -6 11.5 -33t13.5 -33q20 150 63 449q14 94 16 94v-2l-47 57q-10 -115 -28 -348 q-2 -27 -15.5 -89.5t-13.5 -94.5zM477 1075h37q14 68 14 64q0 8 -32 53q-8 -63 -19 -117zM754 881q0 -29 13.5 -48.5t29.5 -39.5v114q0 8 -17.5 29.5t-19.5 26.5q2 -16 -2 -43t-4 -39zM1149 1233q0 -8 10 -19q12 -16 15 -18q22 142 22 162q0 -2 -29 55q0 -31 -9 -95.5 t-9 -84.5z" />
<glyph unicode="g" horiz-adv-x="1505" d="M61 633q0 207 68 377q78 201 244 350q188 168 385 168q4 0 186 -4q119 -47 160 -123q2 -4 2 -60q0 -41 -14 -202l-35 -17l-15 4q-279 -49 -397 -114q-197 -111 -196 -340q0 -238 237 -238q121 0 143 49q-55 68 -57 72q-29 43 -29 84q0 31 2.5 90t2.5 88q35 51 284 51 q18 0 52 -5t49 -5h170q14 -4 102 -94v-143q0 -49 -6 -140q-12 -2 -52 -6t-59 -4q-39 0 -67 -33q-18 -25 -39 -76q-16 -41 -31 -81q-59 -129 -184 -175q-86 -34 -245 -34h-9q-115 0 -248 49q-86 31 -198.5 129t-160.5 178q-14 27 -29.5 98.5t-15.5 106.5zM139 674 q0 -156 49 -238q143 -231 500 -231q115 0 187.5 24.5t135 103.5t68.5 150q2 49 15 113q12 19 186 33l4 96q0 14 -6 37.5t-6 34.5h-20q-42 0 -101 6q-82 10 -119 10q-45 0 -221 -25q-4 -47 -6 -153q18 -4 65 -4q35 0 35 -51q0 -205 -215 -205q-145 0 -260 99t-115 243 q0 186 107 340q115 164 293 196q49 12 98 23q61 14 100 14q27 0 50 -4v45q0 41 -9 125q-29 8 -106 12q-15 1 -30 1q-95 0 -173 -23q-221 -68 -369 -305q-137 -223 -137 -467zM414 190q39 -35 155 -57q98 -20 172 -20q94 0 254 51q-29 14 -45 14q-43 0 -129 -16.5t-133 -16.5 q-113 0 -274 45zM518 1057q0 -45 19 -64q98 94 229 131q49 12 260 45q-31 43 -45 54q-23 14 -72 14q-63 0 -194 -43q-147 -47 -164 -88q-2 -8 -17.5 -23.5t-15.5 -25.5zM815 580q10 -14 31 -41l8 41h-39zM1151 557q16 -23 53 -65q40 16 109 16h16q-25 63 -41 63 q-43 0 -137 -14z" />
<glyph unicode="h" horiz-adv-x="1449" d="M80 524q0 25 12 68q14 53 17 70q18 121 59 313q51 244 65 311q8 53 19 107q14 61 43 98l18 8h-2q0 2 90 2q174 0 220 -18q20 -8 77 -92q18 -25 35 -46.5t17 -56.5q0 -33 -19 -96q-23 -82 -24 -96q78 -6 161 -21q12 27 35 180q20 139 34.5 150.5t66.5 11.5q43 0 125.5 -11 t124.5 -11t59.5 -13.5t50.5 -183.5q33 -158 33 -199q0 -51 -83 -389t-108 -393q-41 -94 -80 -94q-37 0 -155 16q-129 18 -144 31q-57 162 -57 195q0 41 21.5 122.5t21.5 120.5q-35 16 -164 33q-49 -139 -151 -420q-39 4 -193 51q-160 49 -169 66.5t-32.5 91.5t-23.5 94z M150 510q224 -60 224 -64h-1q20 66 55 197q43 207 72 207q256 0 411 -41q-29 -150 -75 -453q143 -20 170 -20q63 0 74.5 24.5t25.5 118.5q10 66 18 131q6 33 50 191q73 274 73 520q-86 12 -258 27q-18 -113 -55 -338l-8 -9q-180 31 -279 31q-141 0 -141 37q0 49 29 172 q20 90 38 178q-131 10 -180 11q-23 0 -59 -11q-45 -131 -113 -458q-72 -342 -71 -451zM430 444q0 -29 19 -67q14 -31 30 -64l117 353q0 20 -68 100q-18 -37 -57 -162q-41 -131 -41 -160zM567 1126q23 -6 70 -16q22 65 49 186q-18 33 -51 78q-20 -47 -39 -123 q-27 -111 -29 -125zM1120 344q0 -20 10 -57q14 -47 17 -58q45 109 84 287q29 145 59 293q24 84 51 168q0 29 -16 120t-25 107l-151 -755q2 -20 -13.5 -57.5t-15.5 -47.5z" />
<glyph unicode="i" horiz-adv-x="1249" d="M27 1327q20 39 67 111q16 20 92 30q213 35 598 121q137 31 146 31q27 0 59 -109q27 -96 27 -135q0 -20 -20.5 -87.5t-30.5 -74.5q-31 -12 -95.5 -23t-95.5 -24q8 -70 37 -178q37 -141 45 -178q8 -74 45 -225q10 2 100 22q66 16 101 17l28 -9q16 -27 43 -134t27 -144 q0 -20 -65 -150q-150 -43 -385 -88q-170 -35 -478 -86q-29 43 -55 127q-23 66 -43 131q0 35 68 181q111 31 237 55q-33 129 -57 309q-20 158 -41 313q-25 -2 -158 -26q-125 -20 -131 -21q-14 0 -35 109q-14 45 -30 135zM74 1343q0 -8 14 -97t16 -93l25 72q0 29 -14 78 q-23 76 -23 77q-8 -12 -18 -37zM154 1415q10 -55 32 -166q143 37 263 37q29 0 40 -20q20 -33 37 -140q10 -78 23 -153q6 -37 61 -223q41 -141 41 -220q0 -47 -57 -63q-47 -8 -92 -14q-86 -16 -205 -43v-17q0 8 63 -200q263 51 783 147v12q0 43 -19 105q-16 49 -32 100 q-178 -39 -218 -39q-37 0 -59 121q-12 78 -22 156q-16 51 -45 155q-25 113 -93 340q0 31 131 60q80 16 162 30q-4 139 -41 181q-123 -31 -375 -84q-14 -2 -378 -62zM225 272q0 -8 70 -168q11 10 27 39q-2 29 -31 101q-43 100 -43 102q-23 -68 -23 -74zM420 1130 q4 -41 20 -110q23 -84 27 -111q8 -57 57 -391q23 5 56 21q-4 119 -58 319q-57 221 -67 316z" />
<glyph unicode="j" horiz-adv-x="1345" d="M31 358q0 16 63.5 92t81 86.5t77.5 35t73 24.5l131 -112q131 -113 188 -113q98 0 98 159q0 115 -36 271q-35 131 -72 264q-35 -2 -146 -53q-27 6 -85 50t-73.5 68.5t-47 142.5t-33.5 150l18 27q29 12 434.5 89t432.5 77q16 0 73.5 -58.5t65.5 -78.5q18 -45 18 -199 q0 -16 -6 -35q-29 -25 -106 -51q-59 -18 -117 -37q125 -408 125 -608q0 -195 -127 -307q-102 -90 -311 -144q-152 -39 -244 -39q-117 0 -242 62.5t-186 159.5q-47 72 -47 77zM102 356q119 -231 418 -231q76 0 225 33q139 29 207 80q88 68 88 190q0 121 -49 334l-82 332 q-2 14 -26 96q-23 76 -23 80q0 27 111 51q69 15 141 29l-45 213l-750 -158v-14q0 -47 72 -215h12q192 67 214 67h1q63 0 138 -319q61 -279 61 -392q0 -119 -74.5 -179t-199.5 -60q-84 0 -179 67q-78 59 -155 119q-16 -6 -53 -55q-25 -35 -52 -68zM942 1208q39 -102 94 -383 q57 -287 58 -383q0 -57 -41 -147q86 100 86 252q0 59 -50.5 317t-70.5 291q-14 20 -34.5 30.5t-41.5 22.5zM1133 1552l12 -51q6 -51 24 -145q21 -21 68 -60v45q0 82 -4 95q-16 37 -100 116z" />
<glyph unicode="k" horiz-adv-x="1345" d="M76 1438q0 18 11 30.5t147.5 55.5t164.5 43q-6 0 37 -6q41 -25 121 -95q35 -119 96 -284q123 327 152 327t151.5 -71.5t135.5 -98.5q41 -82 41 -127q0 -27 -66 -216t-84 -214q2 -25 74 -92q98 -90 133 -135q72 -90 72 -172q0 -27 -179 -180q-68 0 -141 73 q-57 61 -113 123q39 -190 39 -245q0 -25 -13 -32t-169 -45t-172 -38q-27 0 -88 46t-78 75q-12 20 -142 625.5t-130 652.5zM131 1440q2 -23 72 -318q12 -86 43 -258q16 -78 55 -219q43 -152 55.5 -217.5t22.5 -126.5q14 -78 35 -123q137 20 151 25q92 18 146 43q6 18 6 28 q0 57 -41 174t-41 179q0 8 9 19t18 11q16 0 161.5 -173t163.5 -175q172 150 172 168q0 6 -121 135q-113 119 -139 148q-2 0 -35 28q-29 23 -28 27q0 33 82 225q35 86 100 287q-49 33 -100.5 69t-102.5 56q-57 -139 -117 -276q-96 -219 -137 -236q-35 61 -100 320 q-63 248 -68 251q-18 -4 -262 -71zM475 133q23 -45 47 -45q16 0 130 31t139 41q-53 43 -60 43q-6 0 -115 -33q-115 -33 -141 -37zM1044 274q10 -10 27 -18q10 2 71.5 56.5t61.5 60.5q0 10 -10 39q-90 -49 -150 -138z" />
<glyph unicode="l" horiz-adv-x="1462" d="M92 1524q4 2 178 32q113 20 179 21q61 0 196 -160q27 -135 72 -403q6 -104 12 -209q8 -147 37 -195q291 80 414 80q39 0 102 -59q57 -55 70 -94q8 -20 29.5 -146.5t21.5 -146.5q0 -33 -107 -51q-70 -8 -139 -17q-203 -33 -573 -80q-20 -4 -86 -20q-53 -14 -84 -15 q-33 0 -101.5 58.5t-74.5 89.5q-33 199 -72 553q-41 391 -66 553q-8 57 -8 209zM143 1452q0 -68 27 -213q35 -199 39 -221q16 -225 67 -676q12 -37 27 -113q74 12 219 41q240 62 721 119q-16 76 -45 225h-57q-86 0 -257 -43t-253 -43q-10 0 -28.5 -3t-29.5 -3q-23 0 -38 135 q-8 143 -35 433q-20 141 -62 426q-209 -37 -295 -37v-27zM516 1448q0 -68 19 -178q31 -166 30 -176q20 -174 62 -519q24 7 73 19q-27 72 -34 190q-6 96 -11 195q-27 133 -59 405l-80 78v-14zM1257 541q0 -90 27 -150q18 -16 51 -51q-6 70 -37 188q-14 12 -41 37v-24z" />
<glyph unicode="m" horiz-adv-x="1671" d="M25 362q-5 9 -5 33.5t5 63.5q23 205 45 409q29 231 61 408q2 39 27 108q127 174 348 175q367 0 391 -48q12 -23 23 -63q12 -57 14 -68q31 68 63.5 93.5t102.5 25.5q20 0 170 -59q180 -68 192 -72q41 -12 82 -25q55 -18 68 -43q6 -14 6 -57q0 -129 -86 -547 q-90 -428 -141 -522q-12 -20 -71 -69.5t-77 -49.5t-190 82q-154 74 -205 103q41 193 145 444v10q-10 -6 -61 -69q-43 -57 -55 -58q-23 0 -116 25.5t-111.5 39t-26.5 54.5q-4 33 -9 66q-23 -129 -73 -390q-10 -41 -56 -92q-51 -55 -90 -55q-12 0 -116 35q-115 39 -140.5 44 t-60.5 25q-41 23 -53 43zM80 416q29 10 88 30q14 80 41 238q30 252 104 758q-74 -55 -98 -99q-6 -12 -20 -108q-33 -176 -101 -641q-4 -63 -14 -178zM248 451q41 -12 225 -78q41 207 82 413q70 340 90 363q8 6 21 6q29 0 77 -188q31 -119 64 -238q37 -10 115 -24 q70 111 137 221q115 182 133 182q37 0 37 -66q0 -152 -53 -360q-49 -176 -99 -352q150 -47 260 -88q23 51 31 96q121 545 182 876l9 46q-139 47 -416 153q-154 -272 -197 -272q-27 0 -57 145q-33 164 -49 187q-199 30 -261 30h-4q-49 0 -184 -14q-27 -102 -43 -246l-24 -250 q-6 -51 -48 -270q-28 -151 -28 -253v-19zM641 854q0 -33 16 -86q18 -70 23 -88q20 14 59 39q-23 94 -67 280q-2 -2 -21 -71q-10 -43 -10 -74zM924 305q41 25 90 45q59 180 96 377q-23 -10 -63 -39q-10 -12 -62 -180q-47 -150 -61 -203zM956 1280q0 -12 7 -31q67 109 114 183 h-41q-20 -20 -50 -73.5t-30 -78.5z" />
<glyph unicode="n" horiz-adv-x="1355" d="M16 1231q0 16 61.5 101t76.5 89q213 57 352 58q25 0 82 -88q35 -57 69 -115q37 92 52 119q31 61 71 104q27 27 135 51q96 23 150 23q8 0 24.5 8t24.5 8q41 0 86 -270q31 -172 55 -461q18 -231 39 -463q0 -8 6.5 -27.5t6.5 -31.5q0 -18 -7 -43q-35 -129 -96 -176 q-47 -37 -145 -37q-25 0 -85.5 3t-96.5 3q-18 0 -56.5 -5t-54.5 -5q-41 0 -72 63q-25 47 -47 97q-4 -18 -14 -54q-35 -98 -82 -121q-31 -16 -148 -16q-33 0 -97 -9t-95 -9q-43 0 -68 129q-10 84 -20 170q-18 145 -53 436q-53 399 -54 469zM68 1212q6 -72 30 -223 q33 -199 37 -223q12 -133 43 -397q18 -76 43 -232q47 58 47 60q0 27 -15 83t-17 80q-18 133 -50 402q-8 201 -49 563q-20 -43 -69 -113zM184 1358q0 -29 15 -88q18 -74 21 -88.5t42 -438.5q20 -168 66 -503q10 -4 20 -4q27 0 84 9t85 9t69 16q-10 61 -31 183q-4 12 -57 217 q-35 133 -35 217q0 41 31 41q27 0 172 -287q86 -172 170 -344q18 -4 28 -4q68 0 185 29q125 28 182 32v15q0 98 -55 546q-10 96 -76 617q-41 -20 -129 -35q-70 -10 -140 -22q4 -115 58 -428q43 -264 43 -403v-23v-27q-16 -14 -29 -14q-35 0 -94 133q-35 86 -70 174 q-147 356 -239 530q-207 -39 -316 -45v-14zM573 651q0 -100 68 -256q55 -123 111 -243l32 106q0 18 -211 410v-17zM717 1270q0 -113 141 -490q-57 291 -90 594q-51 -61 -51 -104z" />
<glyph unicode="o" horiz-adv-x="1173" d="M25 729v193q0 -8 30 153q8 59 45 189q37 88 156 196q100 90 137 99q140 40 192 40h3q160 0 286 -180q98 -141 162 -366q49 -181 49 -287q0 -150 -73 -317q-92 -209 -246 -279q-47 -27 -96 -53q-41 -20 -97 -21q-203 0 -337 105q-74 55 -144 243q-68 176 -67 285zM72 889 v-15q0 -96 24 -208q23 -88 45 -177q8 -31 31 -75q20 -37 41 -76q33 -63 53 -74q8 -6 51 -6q8 0 46.5 10.5t48.5 12.5q-141 98 -222 278q-73 162 -73 335q0 124 8 177q6 45 45 176q-16 -10 -41 -57q-18 -74 -37 -146q-18 -82 -20 -155zM180 901q0 -348 260 -559 q33 -27 101.5 -53.5t109.5 -26.5q170 0 277 164q94 141 94 305q0 205 -102 463q-137 346 -363 346q-215 0 -313 -254q-63 -168 -64 -385zM424 1081q0 270 123 271q66 0 90 -25q78 -72 142.5 -222.5t64.5 -254.5q0 -100 -41 -170q-51 -88 -148 -88q-143 0 -200 213 q-31 121 -31 276zM483 973q0 -39 37 -166q45 -152 88 -152q33 0 66 66q31 57 31 100q0 4 2 14.5t2 16.5q0 61 -43 170q-55 141 -131 141q-33 0 -52 -28v-162zM676 670l16 -4q18 -4 47 -4q16 12 37 49t19 53h-4q-20 0 -58 -39z" />
<glyph unicode="p" horiz-adv-x="1161" d="M37 1460q0 41 10 56q25 31 193 53q133 16 215 16q305 0 460 -119q179 -137 179 -444q0 -143 -82 -260t-215 -158q-70 -25 -205 -69q-2 -6 -2 -15q0 -57 5 -174t5 -174q0 -78 -39 -88q-24 -7 -67 -7h-11h-19q-36 0 -54 -3q-12 -2 -78 -21q-49 -14 -76 -14q-25 0 -72 59 q-41 51 -55 84q-25 57 -59 606q-33 502 -33 672zM88 1487q0 -549 90 -1264q135 25 275 37v14q0 45 -6.5 135.5t-6.5 135.5q0 20 -10 59t-10 58q0 33 63 43l86 8q96 16 199 57q96 39 172 168t76 238q0 129 -103 219q-84 78 -221 114q-102 27 -129 27q-326 0 -475 -49z M195 172q68 -80 67 -80q27 0 113 20q78 17 132 17h11q-51 78 -55 78q-29 0 -268 -35zM362 1284q0 41 74 49q14 2 111 2h3q202 0 202 -161q0 -109 -119 -183q-104 -61 -221 -65l-25 22v64q0 45 -12.5 136t-12.5 136zM453 1272q72 -72 69 -72q10 0 27 10q12 2 53 7q35 4 53 4 q23 -1 43 -9q-12 33 -52 55.5t-79 22.5q-33 0 -114 -18zM502 649q47 -47 63 -78q115 41 228 80q120 47 188 158l-47 4l-25 -4q-88 -68 -194 -107q-61 -20 -213 -53zM537 1124q0 -20 4 -58t4 -58q157 61 157 137l-34 24q-14 -1 -32 -1q-37 0 -93 3q-6 -16 -6 -47z" />
<glyph unicode="q" horiz-adv-x="1142" d="M2 678q0 90 6 207q10 233 129 442q141 252 352 252q236 0 377 -266q117 -221 117 -475q0 -225 -33 -289q12 -12 41 -37q113 -100 113 -154q0 -51 -33 -137q-10 -29 -85 -102.5t-101 -73.5q-10 0 -56 43q-29 29 -59 57q-16 14 -25 19q-51 -43 -178 -68q-98 -18 -190 -18 q-53 0 -117 28q-258 113 -258 572zM88 850q0 -74 39 -305q53 -305 328 -305q98 0 276 94q35 18 41 18q25 0 150 -102q37 47 108 139q-47 43 -141 131q-4 18 -4 21q0 23 15 66.5t18 64.5q6 55 6 166q0 229 -105 434q-127 250 -332 250q-78 0 -151 -49q-248 -168 -248 -623z M248 864q0 180 55 312q76 178 232 178q145 0 213 -172q49 -123 49 -287q0 -78 -11 -156q-14 -125 -47 -125q-16 0 -59 64q-18 29 -55 59q-80 -49 -80 -63q0 -4 60.5 -78t60.5 -80q0 -35 -95 -76q-82 -34 -125 -34h-2q-57 0 -92 24q-55 39 -84 203q-20 119 -20 231zM307 205 q18 -41 40 -53.5t69 -12.5q229 0 311 74q2 18 10 55q-132 -86 -282 -86q-74 0 -148 23zM309 864q0 -92 17 -207q23 -158 63 -180q20 -12 55 -12q41 0 62 12q-63 66 -64 101q0 53 68 145q63 88 113 88q7 0 14 -2v20q0 133 -47 230q-59 123 -174 123q-61 0 -78 -76 q-8 -63 -18.5 -127t-10.5 -115zM569 1184q125 -74 125 -416q0 -31 27 -57q6 76 6 131q0 329 -61 356q-10 6 -45 6q-41 0 -52 -20zM936 150l84 86l8 47l-86 -95z" />
<glyph unicode="r" horiz-adv-x="1067" d="M2 186q0 90 82 711q86 635 109 676q10 20 63 35q43 12 76 12q39 0 110 -16q86 -18 109 -23q240 -29 340 -111q125 -100 125 -321q0 -229 -121 -369q-29 -33 -96 -78q-57 -39 -58 -40q205 -330 205 -412q0 -70 -18 -96q-25 -31 -125.5 -85.5t-143.5 -64.5q-49 57 -112 176 q-76 145 -103 189q-6 -20 -6 -76v-66q2 -47 2 -71q0 -174 -59 -174q-20 0 -63.5 10t-61.5 10q-16 2 -45 0q-35 -2 -45 -2q-31 0 -52.5 11.5t-66.5 83t-45 91.5zM74 184q12 -6 35 -6q8 0 36.5 -4t34.5 -4q31 0 68 -6t71 -6q35 295 52 592h20q29 -29 150 -265 q143 -283 159 -309q57 33 172 105q-23 61 -75 182q-4 10 -90 147q-72 115 -72 138q0 4 82 88q98 100 153 180q82 119 82 215q0 43 -39 108q-61 104 -178 142q-2 0 -229 45q-170 33 -184 33q-25 0 -68 -15q-14 -84 -41 -254q-33 -233 -68 -467q-37 -268 -51 -467 q-2 -20 -12 -86q-8 -46 -8 -75v-11zM88 117l41 -60h15q79 0 223 -18q-4 18 -15 49q-16 6 -101 17.5t-110 11.5h-53zM354 1006q0 55 11.5 167.5t11.5 169.5q0 51 74 64q16 2 118 2q76 0 130.5 -49t54.5 -127q0 -121 -102.5 -205t-225.5 -84q-39 0 -55.5 11.5t-16.5 50.5z M418 1120q0 -53 6 -119q25 4 45 5q0 33 3 103t3 103q0 8 -23.5 48t-25.5 47q0 -31 -4 -92.5t-4 -94.5zM438 522l211 -418q10 6 19 15q-88 190 -211 422zM535 1059l2 -31q49 8 96 67.5t51 114.5q-49 37 -80 37q-41 -2 -45 -2q-23 -6 -24 -35q-3 -24 -3 -62t3 -89z" />
<glyph unicode="s" horiz-adv-x="1067" d="M35 360q0 76 125 306q25 0 149.5 -79t231.5 -79q27 0 59.5 31.5t32.5 58.5q0 29 -37 43q-29 8 -57 18q-121 57 -240 117q-104 66 -170 205q-61 129 -61 209q0 61 30 135q33 82 203 181.5t264 99.5q90 0 197 -41q123 -45 162 -113q30 -51 30 -182v-8q0 -37 -44 -93.5 t-81 -56.5q-2 0 -100 37t-158 37q-33 0 -32 -25q0 -45 98 -106q72 -39 141.5 -77t114.5 -110q23 -35 67 -141t44 -176q0 -39 -19 -92q-14 -43 -31 -88q-82 -268 -503 -269q-57 0 -172 15q-141 16 -156 35q-10 27 -31 75q-57 121 -57 133zM96 367q170 -84 361 -84 q125 0 190 14q106 20 174 112.5t68 198.5q0 162 -74 256q-39 49 -158 109q-145 72 -186 102q-90 70 -90 162q0 129 192 129q94 0 199 -45l57 117q0 27 -118 65q-106 37 -148 37q-80 0 -272 -113q-162 -96 -162 -237q0 -160 150 -250q139 -66 278 -129q150 -82 150 -217 q0 -68 -60 -107q-50 -34 -117 -34h-4q-131 0 -338 143q-29 -70 -92 -217v-12zM106 295q33 -61 58 -109q45 -2 145 -14q92 -12 144 -12q159 0 184 39q-53 25 -88 26q34 -1 34 -2q0 -2 -124 -2q-172 0 -353 74zM612 1237q80 -2 176 -51v14q0 6 -2 19.5t-4 17.5q-59 31 -73 31 q-45 0 -97 -31z" />
<glyph unicode="t" horiz-adv-x="1409" d="M14 1210q0 6 17 50q18 53 24 77q10 59 41 176q4 12 57.5 36t63.5 24q127 0 207 -6q27 -2 182 -41q182 -47 254 -62q94 -16 293 -59q66 -10 184 -41q21 -6 21 -39q0 -84 -35 -231q-16 -35 -39 -84q-6 -29 -14 -45.5t-49 -45t-58 -28.5q-68 0 -151 24q-111 35 -121 37 q-12 -125 -43 -358q-10 -68 -39 -152q-20 -68 -43 -133q-12 -55 -53 -164q-12 -20 -66 -71q-61 -55 -86 -56q-39 0 -127 41q-59 29 -119 58q-67 27 -67 66v5l149 838q-27 39 -66.5 54.5t-76.5 27.5q-68 18 -135 37q-104 31 -105 65zM86 1264q20 10 43 30q14 37 31 109 q14 64 12 74v20q-31 -10 -39 -20q-16 -102 -47 -213zM182 1296q92 -4 305 -82q33 -6 64 -14q43 -10 43 -37q0 -4 -11.5 -46t-11.5 -56q-33 -330 -141 -795q82 -29 238 -80q51 145 125 426q12 72 36 342q5 60 5 90v9q0 2 -3.5 20.5t-3.5 24.5q2 27 37 26q4 0 33 -9t39 -9 q94 0 313 -43q49 158 49 213v47q-66 6 -180 31q-59 20 -119 30q-121 20 -378 82q-182 45 -283 45h-109q-6 -29 -26 -106q-20 -68 -21 -74v-35zM305 219q31 20 68 57q37 117 73 336q74 430 72 467v17q-8 -4 -63 -33q-2 -12 -56 -295q-31 -195 -94 -549z" />
<glyph unicode="u" horiz-adv-x="1515" d="M39 692q0 170 72 451q76 303 159 413q111 -8 219 -16q160 -16 185 -57q10 -14 44 -88t34 -82q0 -6 -58 -191q-59 -197 -65 -223q-18 -82 -19 -143q2 -113 72 -113t180 340q61 211 123 424q131 -18 387 -74q20 -37 41 -143q19 -98 19 -143q0 -102 -95 -357 q-25 -68 -49 -133q-31 -74 -67 -125q-147 -205 -375 -278q-90 -27 -187 -27q-168 0 -317 72.5t-242 208.5q-25 37 -45 137q-16 90 -16 147zM111 635q0 -41 53 -150q23 -49 74 -127q55 -51 161 -86q95 -30 180 -30h5q227 0 395 174q154 158 199 389q6 33 67 237 q41 143 41 236v8q-84 10 -250 33q-45 -137 -127 -414q-45 -160 -92 -231q-76 -119 -205 -119q-184 0 -184 250q0 66 33 221q33 147 57 219q27 63 66 195q-45 18 -107 20l18 -1q0 -1 -128 -1q-10 0 -26.5 8.5t-27.5 8.5q-47 0 -135 -345q-67 -256 -67 -488v-7z" />
<glyph unicode="v" horiz-adv-x="1402" d="M25 1554q0 49 38 50q20 0 60.5 -11.5t60.5 -11.5q23 0 70 2t72 2q70 0 110 -31q25 -20 72 -92l37 -59q0 -14 -4 -42t-4 -42q0 -96 12 -244q12 -123 22 -244q113 170 166 259q90 145 150 266q16 47 59 131q10 10 27 10q27 0 177 -66.5t159 -82.5q20 -46 20 -177 q0 -4 -4 -18q-4 -20 -90 -156q-109 -168 -109 -170q-86 -164 -272 -483q-55 -96 -109 -192q-88 -145 -133 -146q-43 0 -174 14q-141 18 -159 31q-8 4 -45 68.5t-48 103.5q-6 18 -16 109l-102 833q-12 96 -27 195q-16 115 -16 194zM86 1532l150 -1268h16h12q113 0 324 -35 q117 166 334 506q43 86 131 254q65 113 196 336q-35 20 -268 107q-27 -86 -100 -205q-63 -98 -127 -195q-66 -113 -131 -225q-111 -186 -127 -186q-25 0 -27 20q-14 199 -47 580q-12 92 -35 276q-247 35 -296 35h-5zM248 207q23 -45 47 -88t86 -43h44h44q25 0 62.5 -4 t62.5 -4v14q0 14 -10.5 45t-8.5 49q-186 31 -233 31h-94z" />
<glyph unicode="w" horiz-adv-x="1603" d="M43 1464q23 14 139.5 40t151.5 26q6 0 80 -4l12 -2q29 -6 83 -42t71 -63q25 -35 51 -233q33 -225 45 -266q14 35 29 67q12 18 61 19q78 0 166 -37q20 -10 47 -41q31 -41 41 -49q27 133 78 360q61 279 82 324h8q23 0 155 -61.5t140 -74.5q14 -23 43.5 -117.5t29.5 -121.5 q0 -84 -47 -266q-35 -133 -69 -269q-2 -2 -41 -235q-31 -172 -53 -215q-18 -35 -273 -35q-88 0 -125 43q-2 2 -67 127q-33 -45 -64 -90q-41 -57 -81 -57.5t-120.5 -2.5t-121.5 -2q-53 0 -125 76q-66 68 -86 127q-27 78 -54 236q-33 188 -45 241q-47 199 -141 598zM109 1423 q41 -176 131 -538q29 -164 106 -488q113 -12 334 -32q33 70 65 137q51 109 72 108q23 0 70 -121q25 -74 51 -147q10 1 23 1q20 0 48 -2q46 -3 64 -3q129 0 150 51q41 106 88 373q33 199 65 397q18 80 43 242q-70 35 -207 102q-43 -201 -86 -401q-63 -291 -102 -365 q-20 -41 -31 -41q-25 0 -65.5 116t-50.5 120q-59 20 -115 20q-6 0 -69.5 -132t-104.5 -132q-35 0 -74 205q-23 127 -43 254q-57 236 -113 328l-24 2h-8q-43 0 -104.5 -19.5t-104.5 -19.5h-8v-15zM391 336q25 -35 50.5 -64.5t74.5 -29.5q29 0 89 5t91 5q-10 23 -28 51 q-18 8 -277 33zM961 281q31 -57 86 -58q4 1 219 15q-14 23 -35 71q-98 -27 -262 -28h-8z" />
<glyph unicode="x" horiz-adv-x="1546" d="M51 543q0 43 254 250q-59 78 -121 155q-63 94 -63 180q0 119 14.5 145.5t166 147.5t173.5 121q-2 0 25 -2q172 -201 278 -395l242 192q197 158 225 158q35 0 127 -111q86 -104 101 -149q20 -58 20 -240q0 -45 -137 -157q-94 -70 -189 -142q80 -96 158 -192 q53 -90 53 -244q0 -39 -128 -133t-171 -94q-25 0 -174 155.5t-151 155.5q-29 0 -225.5 -114.5t-217.5 -114.5q-27 0 -117 92t-98 125q-45 139 -45 211zM137 453q0 -66 33 -115q19 -31 82 -90v61q-113 143 -113 144h-2zM156 553q94 -129 166 -205q98 55 294 166q4 2 61.5 41 t61.5 39q12 0 170 -145q94 -88 191 -177q164 152 164 162q0 8 -127 193.5t-127 193.5q0 20 192.5 192.5t192.5 192.5t-66 103q-59 76 -86 100q-37 -23 -252 -213q-205 -180 -217 -180q-20 0 -40.5 30.5t-129.5 206.5q-74 121 -143 209q-31 -23 -133 -112q-115 -96 -115 -105 q0 -4 132 -189.5t132 -209.5q0 -16 -321 -293zM201 1081q0 -37 11 -56t76.5 -101t73.5 -82q13 -1 29 22q-92 119 -190 256v-39zM776 422q89 -97 271 -285v19q0 45 -115 163q-78 78 -156 154v-51z" />
<glyph unicode="y" horiz-adv-x="1320" d="M39 1440q4 31 149 92q135 59 177 61q131 -70 167.5 -112.5t71.5 -175.5q16 -63 53 -187q45 74 158 250q141 217 166 217q63 0 187 -116.5t126 -182.5q-141 -223 -250 -348q-43 -47 -86 -96q-55 -61 -69.5 -102.5t-14.5 -180.5q0 -35 -20 -264t-27 -238q-25 -43 -122 -43 q-20 0 -57.5 2t-49.5 2q-23 0 -70 -3t-69 -3q-55 0 -76 25q-8 10 -38 92t-30 94q0 55 8.5 168t8.5 168q0 39 12 118t12 118t-32 92q-27 43 -52 84q-2 2 -233 469zM113 1432q66 -135 202 -406q35 -53 71 -110.5t36 -118.5q0 -39 -12.5 -113t-12.5 -106l-16 -342l12 -7h238 q53 0 55 7q10 18 31 296l16 195q8 94 12 107q2 2 54 38q41 31 202.5 252.5t161.5 253.5q0 16 -71 70q-64 45 -101 61q-53 -86 -188 -299q-162 -252 -191 -252q-25 0 -43 39q-68 178 -221 529q-8 -2 -235 -94zM401 164q14 -31 48 -86q293 4 293 6h-1q-9 37 -32 76 q-20 0 -58.5 -2t-56.5 -2q-16 0 -45 4t-43 4h-105z" />
<glyph unicode="z" horiz-adv-x="1302" d="M12 1405q0 31 39 43q33 8 66 14q96 31 479 92q10 2 160 35q104 23 162 23q41 0 88 -21q55 -23 71 -53q2 -2 32 -161.5t32 -174.5q-20 -39 -123 -194q-84 -137 -256 -412q25 6 164 53q127 43 139 43q16 0 123 -80q12 -25 30.5 -114.5t18.5 -116.5l-2 -19 q-150 -82 -416 -194q-319 -137 -403 -137q-20 0 -76.5 28.5t-81.5 46t-68 148.5q-37 115 -45 166l410 676q-51 -4 -180 -54q-121 -47 -174 -47q-18 0 -72.5 60.5t-63 86t-31 133t-22.5 130.5zM84 1401q23 -104 47 -213q63 14 74 14q31 0 213 62.5t264 62.5q35 -14 35 -33 q0 -47 -221 -415q-160 -268 -285 -461q2 -31 82 -248h12q82 31 189 59q139 37 182 52q84 27 205 84q190 88 198 92q-10 59 -43 174q-68 -23 -260 -76q-168 -45 -256 -84q-35 8 -35 31q0 10 111 198q98 164 131 220q78 106 221 321q12 23 13 39q0 25 -43 262 q-66 -12 -418 -63q-256 -37 -416 -78zM977 1546q10 -109 47 -266q5 -8 66 -57q-25 135 -52 278q-14 20 -61 45zM1094 612q0 -80 30 -131q19 -31 66 -51q-8 53 -31 139q-16 33 -65 64v-21z" />
<glyph unicode="{" horiz-adv-x="606" d="M49 653v197q0 -10 14 108q25 184 87 334q82 203 204 256q16 12 49 29q27 -18 52 -37q39 -27 39 -39q0 -55 -29 -170q-39 -152 -43 -172q-35 -197 -35 -379q0 -334 96 -579q4 -12 38 -69.5t34 -65.5q0 -12 -42 -76t-67 -64q-8 0 -84 51q-119 78 -180 193q-41 74 -92 248 q-41 139 -41 235zM109 797q0 -240 47 -396q61 -200 213 -333q-84 258 -117 393q-51 215 -51 407q0 281 139 600q-113 -96 -176 -311q-55 -180 -55 -360z" />
<glyph unicode="|" horiz-adv-x="778" d="M88 266q0 43 174 631q61 213 178 510q10 25 53.5 58.5t67.5 33.5q33 0 93.5 -37.5t60.5 -66.5q0 -2 -25 -52q-25 -55 -26 -61q-55 -147 -111 -295q-61 -174 -90 -301q-25 -104 -51 -334q2 -41 -9 -121q-6 -20 -60 -42.5t-83 -22.5q-33 0 -102.5 36t-69.5 64zM135 270 q31 -14 94 -45q90 399 148 576q14 45 104 286q63 176 92 291l-63 31q-53 -119 -115 -311q-29 -68 -78 -205q-59 -209 -182 -623zM537 1442q72 -43 77 -43q21 0 41 31q-41 39 -73 38q6 0 -45 -26z" />
<glyph unicode="}" horiz-adv-x="577" d="M39 18q152 379 151 644q0 356 -53 665q-4 27 -41 146q-33 111 -33 120q0 12 23 23q10 -2 59 -39q143 -111 248 -315.5t105 -382.5q0 -57 -17 -224q-18 -174 -32 -215q-84 -260 -261 -397q-74 -57 -106 -57q-33 0 -43 32zM119 92q33 27 86 84q70 109 117 346 q43 207 43 365q0 166 -60 342q-66 199 -174 291q111 -330 111 -830q0 -268 -123 -598z" />
<glyph unicode="~" d="M94 1034q0 53 78 166q72 102 125 146q31 27 51 30h58q20 0 63 7.5t63 7.5q92 0 222 -29q145 -31 207 -72q18 -12 33.5 -51t15.5 -65q0 -10 -11.5 -20.5t-19.5 -10.5q-10 0 -33 22q-12 -23 -28 -22q-16 0 -34 38t-48 38q43 -29 43 -60q0 -8 -11.5 -19.5t-19.5 -11.5 q-4 0 -53 48q-6 6 -60 32l-20 -4l35 -35q27 -27 26 -32q0 -31 -41 -31q-14 0 -57 47q-27 33 -55 66l-29 -5q66 -37 65 -59q0 -10 -11 -20.5t-19 -10.5q-4 0 -88 56q0 -6 5 -20.5t5 -20.5q0 -43 -29 -43q-12 0 -29.5 37.5t-76.5 37.5q-137 0 -195 -137q182 -45 258 -45 q6 0 19.5 14.5t17.5 16.5q35 20 92 20q104 0 137 -51q41 2 121 15q12 4 37 26.5t60 22.5q94 0 121.5 -19.5t27.5 -105.5q0 -98 -139 -99q-20 0 -43 2q2 -14 17.5 -51t15.5 -43q0 -20 -53.5 -66t-73.5 -46q-27 0 -27 32q0 18 44 48t44 38q0 6 -19.5 41t-21.5 44.5t-14 101.5 h-90q0 -76 -45 -101q-33 -18 -119 -18q-80 0 -101 59q-2 27 -10 74q-2 2 -4 2q-10 0 -27.5 -4t-25.5 -4q-10 0 -26.5 4t-24.5 4t-17.5 -13t-15.5 -13q-4 0 -43 25.5t-62 25.5q-8 0 -18 -14.5t-10 -22.5q0 -27 49 -47q20 29 37 28q31 0 30 -30q0 -31 -36 -31q-6 0 -7 4 q-4 -10 -4 -31q0 -137 33 -256q6 -20 33 -63q18 -29 18 -78v-6q23 -6 191 -41q109 -25 192 -55q27 6 80 14q37 70 74 70q16 0 96 -35v-31q-12 -8 -49 -8t-76 -41q18 -35 19 -37q0 -41 -49 -61q-39 -16 -86 -17q-31 0 -54 37q-27 -39 -12 -78q-39 25 -39 64q0 20 12 39 q-53 18 -206 51q-129 27 -199 61q6 57 34.5 59.5t28.5 37.5q0 31 -10 44t-24 27q-39 41 -46 303q-100 51 -90 131q-16 16 -32.5 33t-16.5 43zM561 872h33q4 23 33 54q41 47 41 49h-27q-4 -10 -49 -45q-33 -27 -31 -58zM635 498q0 29 117 45q78 10 141 10q10 0 20 -2l-39 -39 q43 -23 127 -70q31 45 31 60q0 8 -4 24.5t-4 26.5q0 27 57 68q6 -5 6 -17q0 -4 -16 -21.5t-18 -21.5q2 6 2 -49q0 -41 -41 -72l14 -8v-16q0 -4 -12 -4q-47 0 -111.5 38.5t-70.5 38.5q-27 0 -83.5 -11t-84.5 -11q-8 0 -19.5 10t-11.5 21zM748 238h24q12 -1 51 30 q-4 2 -16 11.5t-21 9.5q-8 0 -38 -15v-36zM913 1243l17 -29h6l-14 31zM920 897q33 -10 41 -10q18 0 59 125q-12 -8 -100 -115z" />
<glyph unicode="&#xa7;" horiz-adv-x="1710" d="M37 786q0 281 172 502q186 240 498 295q61 12 223 12q8 0 22.5 -6t21.5 -6t56 -13.5t55 -13.5q41 0 205 -90q186 -123 283 -319q82 -173 82 -361q0 -156 -41 -266q-61 -162 -135 -248q-47 -55 -113 -112q-20 -18 -102 -70q-104 -63 -140 -63q-4 0 -45 -15.5t-67 -15.5 q-6 0 -17.5 -3t-19.5 -3t-23.5 -4t-21.5 -6q-86 -6 -174 0q-29 2 -49 2q-61 0 -177 53q-88 39 -147 80q-82 57 -164 151q-111 127 -147 273q-35 139 -35 247zM74 786q0 -135 47 -260q72 -199 236.5 -338t367.5 -168q57 -6 190 -6q8 0 24.5 3t25 3t17.5 3.5t17.5 3.5t56.5 15 t52 15t90 39q141 66 244 193q51 66 96 155q80 162 80 342q0 88 -39 240q-31 115 -139 250q-119 147 -244 199q-113 45 -129 45q-8 0 -75.5 18t-76.5 18q-244 0 -409 -75q-201 -96 -334 -324q-98 -168 -98 -371zM223 817q41 25 47 25q8 0 10.5 -3t8.5 -3q59 0 80 12 q45 39 149 115q92 59 162 88q129 51 160 51q96 0 194 -64q78 -53 131 -123q27 -27 76 -94q12 -18 -8 -39q6 -12 32.5 -18t28.5 -6q49 -41 49 -70q0 -49 -14 -70q-35 -33 -96 -106q0 -10 -10 -31q-37 -45 -111 -49q-61 -2 -125 -4q-12 -8 -8 -18q-76 -47 -98 -48 q-6 0 -35 15.5t-37 15.5t-83 -12t-81 -12q-70 0 -149.5 33.5t-118.5 33.5q-45 0 -127 -22q12 14 94 47t94 33q16 0 71.5 -50.5t88.5 -50.5h80q55 0 121 27q10 4 12 7t2 7q-4 8 -4 15q111 4 313 14q51 4 78 35q6 6 14 88q0 -10 15 -37q23 31 22 49q0 8 -12 44t-12 44 q0 23 24 47q4 14 -22 15q-35 0 -92 -52q2 -6 8 -6q-16 -18 -33 -20q-66 -14 -143 -15q8 0 -135 41q63 4 63 39q0 27 -37 49q10 -4 39 -17t37 -13q20 0 35 24q8 20 16 39v-63h49q23 12 72 30q-16 -16 -31 -45v-34l1 -3q1 -4 12 -4l57 41q12 8 80 37q0 14 -8 35 q-111 131 -299 217l-13 -12q-37 -6 -166 -49q41 35 88 59q20 6 41 10q29 10 39 31h-102q-10 -2 -100 -41q-100 -43 -154 -74q-6 -4 -102 -73q-82 -61 -95 -62h-133zM244 1106q0 47 47 94q25 4 30 16.5t17 47.5h22q7 -54 7 -160q-84 -51 -97 -51q-31 0 -26 53zM274 1122 q0 -8 3.5 -18t3.5 -12q2 0 4 2t10 2q35 0 35 47q0 31 -23 41q-33 -39 -33 -62zM381 1104q-2 94 6 149l-6 11h41v-127q-10 -18 -41 -33zM381 1278v18q-2 10 5 12.5t7 4.5q17 0 25 -6l-8 -29h-29zM436 1270q2 0 7.5 4t13.5 4t17 -20.5t15 -36.5q23 6 34 44t34 42l-20 -78 q-12 -45 -35 -76q-31 10 -66 117zM504 133v29q25 41 106 110q-6 14 -52 21.5t-54 21.5v21q59 -12 162 -31v-29q-35 -35 -107 -114q68 -18 76 -19q23 0 31 -8v-20q-72 10 -103 10l-18 -6q-12 0 -41 14zM567 1208q0 49 15 115q8 2 24 10q17 -16 17 -28q0 -4 -13 -19 q-2 -23 -2 -108q-2 0 -15 -3.5t-20 -3.5q0 6 -3 17.5t-3 19.5zM580 1376h28v-30q-2 0 -13 -3.5t-13 -3.5q-14 12 -2 37zM629 1251q0 45 39 72q14 4 47 20q6 20 6 24.5t10 14.5q2 0 19 -10q10 -37 10 -35v-120q-82 -20 -96 -21q-35 0 -35 55zM666 1257q0 -23 8 -36h26 q15 16 15 45q0 35 -21 37q-29 6 -28 -46zM690 197q0 59 22.5 80.5t80.5 21.5q12 0 26.5 -22.5t14.5 -34.5v-41q-12 0 -48 3t-43 3q-20 0 -20 -19q0 -70 48 -69.5t56 -7.5q-16 -23 -49 -23q-41 0 -64.5 37t-23.5 72zM729 233q82 0 80 0q-6 12 -21.5 26.5t-21.5 14.5 q-31 0 -37 -41zM766 1286q0 78 90 78q8 0 19.5 -20.5t21.5 -38.5q-14 -16 -51 -18.5t-37 -20.5q0 -10 16 -27q10 0 29 18h23q0 -16 -3 -22q-10 -20 -30 -21h-23q-27 0 -43 33q-12 25 -12 39zM809 1303h29l6 8q6 16 -21 28l-14 -14v-22zM823 934l17 3q16 3 37 3l6 -6v-16 q-16 -10 -54 -33l-3 15t-3 34zM852 408q16 -8 39 -9q36 0 61 29q-10 0 -32.5 4t-28.5 4q-25 0 -39 -28zM866 90v162q-2 12 26 39.5t38 27.5q66 0 65 -47v-32l-14 -15q-4 2 -18 33q-10 23 -21 23q-43 0 -43 -91q0 -55 10 -94q-27 -14 -43 -6zM952 905v23q20 0 47 12 q15 -15 15 -27q0 -23 -25 -22q-8 0 -37 14zM1014 225q0 20 4 35q8 25 42 48.5t50 23.5q35 0 49 -53q10 -31 10 -60q0 -47 -20 -86q-6 -8 -19 -18q-4 0 -16 -7.5t-22 -7.5q-37 0 -60 47q-18 37 -18 78zM1020 1010l35 -21l4 8l-35 21zM1047 215q8 -78 43 -78q8 0 8 3t6 3 q35 0 35 76q0 80 -31 80q-27 0 -44 -24.5t-17 -59.5zM1065 1217v85v87q31 -16 31 -52q6 -2 17 3.5t17 5.5q16 0 34 -31t18 -47q0 -59 -52 -60q-8 0 -31.5 4.5t-33.5 4.5zM1079 563l11 64l12 -74zM1096 1247q16 -14 28 -14q13 0 21 8v59q-14 14 -25 15q-8 0 -24 -15v-53z M1196 1317q0 8 8 16q39 -25 39 -82q6 0 17 -12q12 25 36 76q23 -1 23 -19q0 -16 -33 -92t-45 -76q-10 0 -39 15q0 4 2 12q10 4 35 21q-4 25 -23.5 80t-19.5 61zM1245 674q0 -23 15 -64q2 2 26 8q27 23 27 46v41q-10 0 -24.5 3t-22.5 3q-20 0 -21 -37z" />
<glyph unicode="&#xad;" d="M123 928q0 23 22 30q68 27 371 25q90 0 229 -4q133 -2 158 -2q14 0 45 4t45 4q57 0 90 -61q25 -47 25 -107q0 -211 -15.5 -233.5t-109.5 -22.5q-27 0 -81 -3t-81 -3q-35 0 -104.5 4t-104.5 4q-88 0 -270 -10q-10 0 -29.5 -5t-29.5 -5q-45 0 -146 149q-14 168 -14 236z M186 899l13 -168h86q6 0 18 4t19 4h258q35 0 100 11q76 12 104 14q33 2 185 0v151h-29q-16 0 -47 -8t-47 -8q-23 0 -62 8t-57 8q-92 4 -182 5q-209 0 -359 -21zM240 666l53 -58q16 6 53 13q98 8 266 8q35 0 105.5 -4t107.5 -4q33 0 95.5 4t93.5 4q-12 22 -37 63 q-35 6 -107 6q-49 0 -145 -12t-141 -12h-267q-14 0 -38 -4q-31 -4 -39 -4z" />
<glyph unicode="&#xb6;" horiz-adv-x="505" d="M66 846q0 63 35 63q33 0 108 -39h13q0 16 -6.5 50t-6.5 51q0 37 33 37q63 0 64 -50q0 -8 -2.5 -27.5t-2.5 -29.5l9 -12q55 39 71 39q10 0 36 -38t26 -50q0 -20 -37 -29q-27 -4 -53 -6q78 -76 78 -86q0 -23 -13.5 -46.5t-34.5 -23.5q-18 0 -57 41q-27 29 -51 57 q-16 -31 -33 -61q-25 -47 -41 -47t-38.5 23.5t-22.5 39.5q0 20 20.5 41t26.5 43q-39 6 -76 11q-45 10 -45 49z" />
<glyph unicode="&#x2000;" horiz-adv-x="873" />
<glyph unicode="&#x2001;" horiz-adv-x="1747" />
<glyph unicode="&#x2002;" horiz-adv-x="873" />
<glyph unicode="&#x2003;" horiz-adv-x="1747" />
<glyph unicode="&#x2004;" horiz-adv-x="582" />
<glyph unicode="&#x2005;" horiz-adv-x="436" />
<glyph unicode="&#x2006;" horiz-adv-x="291" />
<glyph unicode="&#x2007;" horiz-adv-x="291" />
<glyph unicode="&#x2008;" horiz-adv-x="218" />
<glyph unicode="&#x2009;" horiz-adv-x="349" />
<glyph unicode="&#x200a;" horiz-adv-x="97" />
<glyph unicode="&#x2010;" d="M123 928q0 23 22 30q68 27 371 25q90 0 229 -4q133 -2 158 -2q14 0 45 4t45 4q57 0 90 -61q25 -47 25 -107q0 -211 -15.5 -233.5t-109.5 -22.5q-27 0 -81 -3t-81 -3q-35 0 -104.5 4t-104.5 4q-88 0 -270 -10q-10 0 -29.5 -5t-29.5 -5q-45 0 -146 149q-14 168 -14 236z M186 899l13 -168h86q6 0 18 4t19 4h258q35 0 100 11q76 12 104 14q33 2 185 0v151h-29q-16 0 -47 -8t-47 -8q-23 0 -62 8t-57 8q-92 4 -182 5q-209 0 -359 -21zM240 666l53 -58q16 6 53 13q98 8 266 8q35 0 105.5 -4t107.5 -4q33 0 95.5 4t93.5 4q-12 22 -37 63 q-35 6 -107 6q-49 0 -145 -12t-141 -12h-267q-14 0 -38 -4q-31 -4 -39 -4z" />
<glyph unicode="&#x2011;" d="M123 928q0 23 22 30q68 27 371 25q90 0 229 -4q133 -2 158 -2q14 0 45 4t45 4q57 0 90 -61q25 -47 25 -107q0 -211 -15.5 -233.5t-109.5 -22.5q-27 0 -81 -3t-81 -3q-35 0 -104.5 4t-104.5 4q-88 0 -270 -10q-10 0 -29.5 -5t-29.5 -5q-45 0 -146 149q-14 168 -14 236z M186 899l13 -168h86q6 0 18 4t19 4h258q35 0 100 11q76 12 104 14q33 2 185 0v151h-29q-16 0 -47 -8t-47 -8q-23 0 -62 8t-57 8q-92 4 -182 5q-209 0 -359 -21zM240 666l53 -58q16 6 53 13q98 8 266 8q35 0 105.5 -4t107.5 -4q33 0 95.5 4t93.5 4q-12 22 -37 63 q-35 6 -107 6q-49 0 -145 -12t-141 -12h-267q-14 0 -38 -4q-31 -4 -39 -4z" />
<glyph unicode="&#x2012;" d="M123 928q0 23 22 30q68 27 371 25q90 0 229 -4q133 -2 158 -2q14 0 45 4t45 4q57 0 90 -61q25 -47 25 -107q0 -211 -15.5 -233.5t-109.5 -22.5q-27 0 -81 -3t-81 -3q-35 0 -104.5 4t-104.5 4q-88 0 -270 -10q-10 0 -29.5 -5t-29.5 -5q-45 0 -146 149q-14 168 -14 236z M186 899l13 -168h86q6 0 18 4t19 4h258q35 0 100 11q76 12 104 14q33 2 185 0v151h-29q-16 0 -47 -8t-47 -8q-23 0 -62 8t-57 8q-92 4 -182 5q-209 0 -359 -21zM240 666l53 -58q16 6 53 13q98 8 266 8q35 0 105.5 -4t107.5 -4q33 0 95.5 4t93.5 4q-12 22 -37 63 q-35 6 -107 6q-49 0 -145 -12t-141 -12h-267q-14 0 -38 -4q-31 -4 -39 -4z" />
<glyph unicode="&#x2013;" horiz-adv-x="1230" d="M123 928q0 23 23 30q71 27 386 25q93 0 238 -4q138 -2 164 -2q14 0 46.5 4t46.5 4q60 0 94 -61q26 -47 26 -107q0 -211 -16 -233.5t-114 -22.5q-28 0 -84 -3t-84 -3q-37 0 -109 4t-109 4q-91 0 -280 -10q-11 0 -31 -5t-31 -5q-46 0 -151 149q-15 168 -15 236zM188 899 l14 -168h89q7 0 19.5 4t19.5 4h268q36 0 104 11q79 12 108 14q34 2 192 0v151h-30q-16 0 -48.5 -8t-48.5 -8q-24 0 -64.5 8t-59.5 8q-96 4 -189 5q-218 0 -374 -21zM245 666l55 -58q16 6 55 13q102 8 276 8q37 0 110 -4t112 -4q34 0 99 4t97 4q-12 22 -38 63q-37 6 -111 6 q-51 0 -151 -12t-147 -12h-277q-15 0 -40 -4q-32 -4 -40 -4z" />
<glyph unicode="&#x2014;" horiz-adv-x="2254" d="M123 928q0 23 46 30q141 27 771 25q187 0 476 -4q277 -2 329 -2q29 0 93.5 4t93.5 4q118 0 187 -61q52 -47 52 -107q0 -211 -32 -233.5t-228 -22.5q-56 0 -168.5 -3t-168.5 -3q-72 0 -217 4t-217 4q-183 0 -562 -10q-20 0 -61 -5t-61 -5q-94 0 -304 149q-29 168 -29 236z M254 899l27 -168h179q12 0 37 4t40 4h536q73 0 208 11q158 12 216 14q69 2 385 0v151h-60q-34 0 -98 -8t-98 -8q-48 0 -129 8t-118 8q-191 4 -379 5q-434 0 -746 -21zM366 666l110 -58q34 6 111 13q203 8 553 8q72 0 219 -4t224 -4q68 0 198 4t195 4q-25 22 -77 63 q-73 6 -223 6q-102 0 -301.5 -12t-292.5 -12h-556q-29 0 -79 -4q-64 -4 -81 -4z" />
<glyph unicode="&#x2018;" horiz-adv-x="706" d="M109 1591q0 115 20 135q14 14 37 19q16 4 43 2q41 -2 45 -2q158 0 209 -16q162 -150 162 -232q0 -41 -2 -82v-84q0 -70 -2 -78q-6 -45 -41 -45q-20 0 -45 -12l-3 -16q-4 -49 44.5 -151.5t48.5 -100.5q0 -43 -148 -43q-49 0 -148.5 66.5t-107.5 115.5q-23 61 -45 123 q-45 129 -55 211q-12 100 -12 190zM168 1618q0 -10 5 -45t4 -70t9 -86q6 -31 13 -61q6 -70 32 -146q63 -178 193 -233q-16 23 -51 166t-35 180q0 20 12 25.5t33 1.5l29 -4q16 0 49 8v110q0 197 -15 205q-33 20 -118 21q-150 0 -138 0q-23 -43 -22 -72zM416 1190 q0 -35 41 -146q43 -117 67 -116q15 0 35 14q-66 113 -78 236q-20 8 -65 34v-22zM510 1587q8 -141 8 -260q23 0 45 -8q0 12 3 43t3 41q0 -16 0 88q0 27 -59 96z" />
<glyph unicode="&#x2019;" horiz-adv-x="671" d="M39 1418q0 242 24 274q12 20 72 21q244 0 318 -48q10 -6 76.5 -124.5t70.5 -133.5q12 -57 12 -159q0 -152 -92 -273q-101 -131 -248 -131q-35 0 -82 64l-61 92q2 16 25 43q16 20 32 39q37 51 62 110q-41 2 -111 23q-27 20 -62.5 94t-35.5 109zM104 1397q29 -12 74 -16 q55 -8 72 -12q72 -18 72 -119q0 -94 -95 -226q217 84 217 271q0 29 -8 74q-8 55 -10 73q-14 152 -25 174q-18 31 -227 31h-63q4 -8 4 -20q0 -8 -5.5 -24.5t-5.5 -25.5v-180zM236 953q37 -43 40 -43q119 0 199 110q72 102 72 226q0 74 -12 112q-2 5 -43 99v-15q0 -25 9 -73 t9 -72q0 -236 -274 -344z" />
<glyph unicode="&#x201a;" horiz-adv-x="671" d="M39 240q0 242 24 274q12 20 72 21q244 0 318 -48q10 -6 76.5 -124.5t70.5 -133.5q12 -57 12 -159q0 -152 -92 -273q-101 -131 -248 -131q-35 0 -82 64l-61 92q2 16 25 43q16 20 32 39q37 51 62 110q-41 2 -111 23q-27 20 -62.5 94t-35.5 109zM104 219q29 -12 74 -16 q55 -8 72 -12q72 -18 72 -119q0 -94 -95 -226q217 84 217 271q0 29 -8 74q-8 55 -10 73q-14 152 -25 174q-18 31 -227 31h-63q4 -8 4 -20q0 -8 -5.5 -24.5t-5.5 -25.5v-180zM236 -225q37 -43 40 -43q119 0 199 110q72 102 72 226q0 74 -12 112q-2 5 -43 99v-15q0 -25 9 -73 t9 -72q0 -236 -274 -344z" />
<glyph unicode="&#x201c;" horiz-adv-x="1302" d="M109 1591q0 115 20 135q14 14 37 19q16 4 43 2q41 -2 45 -2q158 0 209 -16q162 -150 162 -232q0 -41 -2 -82v-84q0 -70 -2 -78q-6 -45 -41 -45q-20 0 -45 -12l-3 -16q-4 -49 44.5 -151.5t48.5 -100.5q0 -43 -148 -43q-49 0 -148.5 66.5t-107.5 115.5q-23 61 -45 123 q-45 129 -55 211q-12 100 -12 190zM168 1618q0 -10 5 -45t4 -70t9 -86q6 -31 13 -61q6 -70 32 -146q63 -178 193 -233q-16 23 -51 166t-35 180q0 20 12 25.5t33 1.5l29 -4q16 0 49 8v110q0 197 -15 205q-33 20 -118 21q-150 0 -138 0q-23 -43 -22 -72zM416 1190 q0 -35 41 -146q43 -117 67 -116q15 0 35 14q-66 113 -78 236q-20 8 -65 34v-22zM510 1587q8 -141 8 -260q23 0 45 -8q0 12 3 43t3 41q0 -16 0 88q0 27 -59 96zM725 1591q0 115 20 135q14 14 37 19q16 4 43 2q41 -2 45 -2q158 0 209 -16q162 -150 162 -232q0 -41 -2 -82v-84 q0 -70 -2 -78q-6 -45 -41 -45q-20 0 -45 -12l-3 -16q-4 -49 44.5 -151.5t48.5 -100.5q0 -43 -148 -43q-49 0 -148.5 66.5t-107.5 115.5q-23 61 -45 123q-45 129 -55 211q-12 100 -12 190zM784 1618q0 -10 5 -45t4 -70t9 -86q6 -31 13 -61q6 -70 32 -146q63 -178 193 -233 q-16 23 -51 166t-35 180q0 20 12 25.5t33 1.5l29 -4q16 0 49 8v110q0 197 -15 205q-33 20 -118 21q-150 0 -138 0q-23 -43 -22 -72zM1032 1190q0 -35 41 -146q43 -117 67 -116q15 0 35 14q-66 113 -78 236q-20 8 -65 34v-22zM1126 1587q8 -141 8 -260q23 0 45 -8q0 12 3 43 t3 41q0 -16 0 88q0 27 -59 96z" />
<glyph unicode="&#x201d;" horiz-adv-x="1302" d="M39 1418q0 242 24 274q12 20 72 21q244 0 318 -48q10 -6 76.5 -124.5t70.5 -133.5q12 -57 12 -159q0 -152 -92 -273q-101 -131 -248 -131q-35 0 -82 64l-61 92q2 16 25 43q16 20 32 39q37 51 62 110q-41 2 -111 23q-27 20 -62.5 94t-35.5 109zM104 1397q29 -12 74 -16 q55 -8 72 -12q72 -18 72 -119q0 -94 -95 -226q217 84 217 271q0 29 -8 74q-8 55 -10 73q-14 152 -25 174q-18 31 -227 31h-63q4 -8 4 -20q0 -8 -5.5 -24.5t-5.5 -25.5v-180zM236 953q37 -43 40 -43q119 0 199 110q72 102 72 226q0 74 -12 112q-2 5 -43 99v-15q0 -25 9 -73 t9 -72q0 -236 -274 -344zM676 1400q0 242 24 274q12 20 72 21q244 0 318 -48q10 -6 76.5 -124.5t70.5 -133.5q12 -57 12 -159q0 -152 -92 -273q-101 -131 -248 -131q-35 0 -82 64l-61 92q2 16 25 43q16 20 32 39q37 51 62 110q-41 2 -111 23q-27 20 -62.5 94t-35.5 109z M741 1379q29 -12 74 -16q55 -8 72 -12q72 -18 72 -119q0 -94 -95 -226q217 84 217 271q0 29 -8 74q-8 55 -10 73q-14 152 -25 174q-18 31 -227 31h-63q4 -8 4 -20q0 -8 -5.5 -24.5t-5.5 -25.5v-180zM873 935q37 -43 40 -43q119 0 199 110q72 102 72 226q0 74 -12 112 q-2 5 -43 99v-15q0 -25 9 -73t9 -72q0 -236 -274 -344z" />
<glyph unicode="&#x2026;" horiz-adv-x="1574" d="M37 233q0 72 48 121t120 49t180 -63q29 -14 80 -59q31 -43 31 -88q0 -102 -62 -156q-8 -6 -67.5 -16.5t-71.5 -10.5q-39 0 -118 44t-101 73q-39 47 -39 106zM111 252q0 -53 34 -96q39 -51 103 -52q43 0 71.5 39t28.5 80q0 47 -39 89t-94 42q-45 0 -74.5 -28.5 t-29.5 -73.5zM379 127q25 6 47 12q16 8 16 39q0 66 -45 90q25 -61 -18 -141zM551 239q0 72 48 121t120 49t180 -63q29 -14 80 -59q31 -43 31 -88q0 -102 -62 -156q-8 -6 -67.5 -16.5t-71.5 -10.5q-39 0 -118 44t-101 73q-39 47 -39 106zM625 258q0 -53 34 -96 q39 -51 103 -52q43 0 71.5 39t28.5 80q0 47 -39 89t-94 42q-45 0 -74.5 -28.5t-29.5 -73.5zM893 133q25 6 47 12q16 8 16 39q0 66 -45 90q25 -61 -18 -141zM1053 227q0 72 48 121t120 49t180 -63q29 -14 80 -59q31 -43 31 -88q0 -102 -62 -156q-8 -6 -67.5 -16.5 t-71.5 -10.5q-39 0 -118 44t-101 73q-39 47 -39 106zM1127 246q0 -53 34 -96q39 -51 103 -52q43 0 71.5 39t28.5 80q0 47 -39 89t-94 42q-45 0 -74.5 -28.5t-29.5 -73.5zM1395 121q25 6 47 12q16 8 16 39q0 66 -45 90q25 -61 -18 -141z" />
<glyph unicode="&#x202f;" horiz-adv-x="349" />
<glyph unicode="&#x205f;" horiz-adv-x="436" />
<glyph unicode="&#x25fc;" horiz-adv-x="1546" d="M0 0v1546h1546v-1546h-1546z" />
</font>
</defs>
</svg>
